Manrope-ExtraBold.ufo
<glyph name="numbersign" format="2">
  <advance width="935"/>
  <unicode hex="0023"/>
  <note>
numbersign
</note>
  <outline>
    <contour>
      <point x="183" y="1" type="line"/>
      <point x="315" y="1" type="line"/>
      <point x="365" y="189" type="line"/>
      <point x="473" y="189" type="line"/>
      <point x="423" y="1" type="line"/>
      <point x="555" y="1" type="line"/>
      <point x="605" y="189" type="line"/>
      <point x="779" y="189" type="line"/>
      <point x="813" y="317" type="line"/>
      <point x="639" y="317" type="line"/>
      <point x="667" y="420" type="line"/>
      <point x="841" y="420" type="line"/>
      <point x="875" y="547" type="line"/>
      <point x="701" y="547" type="line"/>
      <point x="748" y="720" type="line"/>
      <point x="616" y="720" type="line"/>
      <point x="569" y="547" type="line"/>
      <point x="461" y="547" type="line"/>
      <point x="508" y="720" type="line"/>
      <point x="376" y="720" type="line"/>
      <point x="329" y="547" type="line"/>
      <point x="156" y="547" type="line"/>
      <point x="121" y="420" type="line"/>
      <point x="295" y="420" type="line"/>
      <point x="268" y="317" type="line"/>
      <point x="94" y="317" type="line"/>
      <point x="60" y="189" type="line"/>
      <point x="234" y="189" type="line"/>
    </contour>
    <contour>
      <point x="400" y="317" type="line"/>
      <point x="427" y="420" type="line"/>
      <point x="535" y="420" type="line"/>
      <point x="507" y="317" type="line"/>
    </contour>
  </outline>
</glyph>
<glyph name="parenleft" format="2">
  <advance width="462"/>
  <unicode hex="0028"/>
  <note>
parenleft
</note>
  <outline>
    <contour>
      <point x="321" y="-194" type="curve"/>
      <point x="422" y="-120" type="line"/>
      <point x="300" y="27"/>
      <point x="264" y="171"/>
      <point x="263" y="330" type="curve" smooth="yes"/>
      <point x="264" y="489"/>
      <point x="300" y="633"/>
      <point x="422" y="780" type="curve"/>
      <point x="321" y="854" type="line"/>
      <point x="205" y="718"/>
      <point x="136" y="517"/>
      <point x="140" y="330" type="curve" smooth="yes"/>
      <point x="136" y="143"/>
      <point x="205" y="-58"/>
    </contour>
  </outline>
</glyph>
<glyph name="asterisk" format="2">
  <advance width="474"/>
  <unicode hex="002A"/>
  <note>
asterisk
</note>
  <outline>
    <contour>
      <point x="163" y="355" type="line"/>
      <point x="222" y="450" type="line"/>
      <point x="281" y="355" type="line"/>
      <point x="378" y="425" type="line"/>
      <point x="304" y="509" type="line"/>
      <point x="414" y="537" type="line"/>
      <point x="377" y="651" type="line"/>
      <point x="273" y="606" type="line"/>
      <point x="282" y="720" type="line"/>
      <point x="162" y="720" type="line"/>
      <point x="171" y="606" type="line"/>
      <point x="67" y="651" type="line"/>
      <point x="30" y="537" type="line"/>
      <point x="140" y="509" type="line"/>
      <point x="66" y="425" type="line"/>
    </contour>
  </outline>
</glyph>
<glyph name="comma" format="2">
  <advance width="316"/>
  <unicode hex="002C"/>
  <note>
comma
</note>
  <outline>
    <contour>
      <point x="60" y="-135" type="line"/>
      <point x="152" y="-150"/>
      <point x="196" y="-96"/>
      <point x="196" y="0" type="curve" smooth="yes"/>
      <point x="196" y="136" type="line"/>
      <point x="60" y="136" type="line"/>
      <point x="60" y="0" type="line"/>
      <point x="130" y="0" type="line"/>
      <point x="137" y="-48"/>
      <point x="116" y="-82"/>
      <point x="68" y="-78" type="curve"/>
    </contour>
  </outline>
</glyph>
<glyph name="zero" format="2">
  <advance width="674"/>
  <unicode hex="0030"/>
  <outline>
    <contour>
      <point x="337" y="-15" type="curve" smooth="yes"/>
      <point x="497" y="-15"/>
      <point x="604" y="92"/>
      <point x="604" y="252" type="curve" smooth="yes"/>
      <point x="604" y="468" type="line" smooth="yes"/>
      <point x="604" y="628"/>
      <point x="497" y="735"/>
      <point x="337" y="735" type="curve" smooth="yes"/>
      <point x="177" y="735"/>
      <point x="70" y="628"/>
      <point x="70" y="468" type="curve" smooth="yes"/>
      <point x="70" y="252" type="line" smooth="yes"/>
      <point x="70" y="92"/>
      <point x="177" y="-15"/>
    </contour>
    <contour>
      <point x="337" y="114" type="curve" smooth="yes"/>
      <point x="265" y="114"/>
      <point x="209" y="170"/>
      <point x="209" y="242" type="curve" smooth="yes"/>
      <point x="209" y="479" type="line" smooth="yes"/>
      <point x="209" y="551"/>
      <point x="265" y="607"/>
      <point x="337" y="607" type="curve" smooth="yes"/>
      <point x="409" y="607"/>
      <point x="465" y="551"/>
      <point x="465" y="479" type="curve" smooth="yes"/>
      <point x="465" y="242" type="line" smooth="yes"/>
      <point x="465" y="170"/>
      <point x="409" y="114"/>
    </contour>
  </outline>
</glyph>
<glyph name="three" format="2">
  <advance width="591"/>
  <unicode hex="0033"/>
  <note>
three
</note>
  <outline>
    <contour>
      <point x="280" y="-13" type="curve" smooth="yes"/>
      <point x="416" y="-13"/>
      <point x="531" y="91"/>
      <point x="531" y="227" type="curve" smooth="yes"/>
      <point x="531" y="338"/>
      <point x="463" y="439"/>
      <point x="339" y="458" type="curve"/>
      <point x="340" y="420" type="line"/>
      <point x="518" y="592" type="line"/>
      <point x="518" y="720" type="line"/>
      <point x="68" y="720" type="line"/>
      <point x="68" y="592" type="line"/>
      <point x="402" y="592" type="line"/>
      <point x="392" y="621" type="line"/>
      <point x="163" y="431" type="line"/>
      <point x="224" y="324" type="line"/>
      <point x="241" y="334"/>
      <point x="260" y="340"/>
      <point x="280" y="340" type="curve" smooth="yes"/>
      <point x="346" y="340"/>
      <point x="393" y="289"/>
      <point x="393" y="227" type="curve" smooth="yes"/>
      <point x="393" y="165"/>
      <point x="342" y="115"/>
      <point x="280" y="115" type="curve" smooth="yes"/>
      <point x="232" y="115"/>
      <point x="186" y="145"/>
      <point x="172" y="198" type="curve"/>
      <point x="40" y="163" type="line"/>
      <point x="71" y="56"/>
      <point x="172" y="-13"/>
    </contour>
  </outline>
</glyph>
<glyph name="four" format="2">
  <advance width="615"/>
  <unicode hex="0034"/>
  <note>
four
</note>
  <outline>
    <contour>
      <point x="363" y="0" type="line"/>
      <point x="501" y="0" type="line"/>
      <point x="501" y="112" type="line"/>
      <point x="565" y="112" type="line"/>
      <point x="565" y="239" type="line"/>
      <point x="501" y="239" type="line"/>
      <point x="501" y="419" type="line"/>
      <point x="363" y="419" type="line"/>
      <point x="363" y="239" type="line"/>
      <point x="206" y="239" type="line"/>
      <point x="433" y="720" type="line"/>
      <point x="277" y="720" type="line"/>
      <point x="50" y="239" type="line"/>
      <point x="50" y="112" type="line"/>
      <point x="363" y="112" type="line"/>
    </contour>
  </outline>
</glyph>
<glyph name="six" format="2">
  <advance width="622"/>
  <unicode hex="0036"/>
  <note>
six
</note>
  <outline>
    <contour>
      <point x="321" y="-15" type="curve" smooth="yes"/>
      <point x="457" y="-15"/>
      <point x="572" y="91"/>
      <point x="572" y="227" type="curve" smooth="yes"/>
      <point x="572" y="363"/>
      <point x="478" y="462"/>
      <point x="342" y="462" type="curve" smooth="yes"/>
      <point x="284" y="462"/>
      <point x="227" y="439"/>
      <point x="186" y="397" type="curve"/>
      <point x="209" y="372" type="line"/>
      <point x="209" y="479" type="line" smooth="yes"/>
      <point x="209" y="545"/>
      <point x="259" y="607"/>
      <point x="337" y="607" type="curve" smooth="yes"/>
      <point x="370" y="607"/>
      <point x="403" y="593"/>
      <point x="427" y="569" type="curve"/>
      <point x="524" y="666" type="line"/>
      <point x="471" y="715"/>
      <point x="407" y="734"/>
      <point x="337" y="734" type="curve" smooth="yes"/>
      <point x="175" y="734"/>
      <point x="70" y="629"/>
      <point x="70" y="459" type="curve" smooth="yes"/>
      <point x="70" y="250" type="line" smooth="yes"/>
      <point x="70" y="93"/>
      <point x="178" y="-15"/>
    </contour>
    <contour>
      <point x="321" y="115" type="curve" smooth="yes"/>
      <point x="259" y="115"/>
      <point x="209" y="167"/>
      <point x="209" y="227" type="curve" smooth="yes"/>
      <point x="209" y="289"/>
      <point x="260" y="340"/>
      <point x="322" y="340" type="curve" smooth="yes"/>
      <point x="384" y="340"/>
      <point x="434" y="289"/>
      <point x="434" y="227" type="curve" smooth="yes"/>
      <point x="434" y="165"/>
      <point x="383" y="115"/>
    </contour>
  </outline>
</glyph>
<glyph name="seven" format="2">
  <advance width="544"/>
  <unicode hex="0037"/>
  <note>
seven
</note>
  <outline>
    <contour>
      <point x="106" y="0" type="line"/>
      <point x="253" y="0" type="line"/>
      <point x="494" y="592" type="line"/>
      <point x="494" y="720" type="line"/>
      <point x="40" y="720" type="line"/>
      <point x="40" y="592" type="line"/>
      <point x="348" y="592" type="line"/>
    </contour>
  </outline>
</glyph>
<glyph name="eight" format="2">
  <advance width="623"/>
  <unicode hex="0038"/>
  <note>
eight
</note>
  <outline>
    <contour>
      <point x="311" y="-15" type="curve" smooth="yes"/>
      <point x="457" y="-15"/>
      <point x="563" y="82"/>
      <point x="563" y="216" type="curve" smooth="yes"/>
      <point x="563" y="292"/>
      <point x="527" y="365"/>
      <point x="464" y="405" type="curve"/>
      <point x="464" y="363" type="line"/>
      <point x="517" y="412"/>
      <point x="543" y="462"/>
      <point x="543" y="528" type="curve" smooth="yes"/>
      <point x="543" y="653"/>
      <point x="447" y="735"/>
      <point x="311" y="735" type="curve" smooth="yes"/>
      <point x="175" y="735"/>
      <point x="79" y="653"/>
      <point x="79" y="528" type="curve" smooth="yes"/>
      <point x="79" y="462"/>
      <point x="108" y="411"/>
      <point x="157" y="364" type="curve"/>
      <point x="160" y="406" type="line"/>
      <point x="95" y="363"/>
      <point x="60" y="292"/>
      <point x="60" y="216" type="curve" smooth="yes"/>
      <point x="60" y="82"/>
      <point x="165" y="-15"/>
    </contour>
    <contour>
      <point x="311" y="113" type="curve" smooth="yes"/>
      <point x="247" y="113"/>
      <point x="204" y="148"/>
      <point x="204" y="216" type="curve" smooth="yes"/>
      <point x="204" y="283"/>
      <point x="247" y="320"/>
      <point x="311" y="320" type="curve" smooth="yes"/>
      <point x="375" y="320"/>
      <point x="419" y="283"/>
      <point x="419" y="216" type="curve" smooth="yes"/>
      <point x="419" y="148"/>
      <point x="375" y="113"/>
    </contour>
    <contour>
      <point x="311" y="449" type="curve" smooth="yes"/>
      <point x="259" y="449"/>
      <point x="223" y="474"/>
      <point x="223" y="528" type="curve" smooth="yes"/>
      <point x="223" y="582"/>
      <point x="259" y="608"/>
      <point x="311" y="608" type="curve" smooth="yes"/>
      <point x="363" y="608"/>
      <point x="399" y="582"/>
      <point x="399" y="528" type="curve" smooth="yes"/>
      <point x="399" y="474"/>
      <point x="363" y="449"/>
    </contour>
  </outline>
</glyph>
<glyph name="at" format="2">
  <advance width="917"/>
  <unicode hex="0040"/>
  <note>
at
</note>
  <outline>
    <contour>
      <point x="456" y="-105" type="curve" smooth="yes"/>
      <point x="506" y="-105"/>
      <point x="555" y="-98"/>
      <point x="600" y="-83" type="curve"/>
      <point x="566" y="17" type="line"/>
      <point x="533" y="6"/>
      <point x="497" y="0"/>
      <point x="461" y="0" type="curve" smooth="yes"/>
      <point x="301" y="0"/>
      <point x="198" y="89"/>
      <point x="192" y="257" type="curve" smooth="yes"/>
      <point x="186" y="434"/>
      <point x="287" y="540"/>
      <point x="460" y="540" type="curve" smooth="yes"/>
      <point x="559" y="540"/>
      <point x="724" y="497"/>
      <point x="724" y="270" type="curve" smooth="yes"/>
      <point x="724" y="225"/>
      <point x="716" y="165"/>
      <point x="676" y="165" type="curve" smooth="yes"/>
      <point x="645" y="165"/>
      <point x="631" y="184"/>
      <point x="631" y="224" type="curve"/>
      <point x="633" y="450" type="line"/>
      <point x="552" y="450" type="line"/>
      <point x="552" y="389" type="line"/>
      <point x="573" y="418" type="line"/>
      <point x="546" y="444"/>
      <point x="492" y="464"/>
      <point x="449" y="464" type="curve" smooth="yes"/>
      <point x="342" y="464"/>
      <point x="257" y="389"/>
      <point x="257" y="270" type="curve" smooth="yes"/>
      <point x="257" y="154"/>
      <point x="336" y="76"/>
      <point x="447" y="76" type="curve" smooth="yes"/>
      <point x="497" y="76"/>
      <point x="549" y="95"/>
      <point x="580" y="130" type="curve"/>
      <point x="541" y="138" type="line"/>
      <point x="570" y="83"/>
      <point x="622" y="59"/>
      <point x="681" y="59" type="curve" smooth="yes"/>
      <point x="779" y="59"/>
      <point x="837" y="157"/>
      <point x="837" y="270" type="curve" smooth="yes"/>
      <point x="837" y="480"/>
      <point x="705" y="645"/>
      <point x="450" y="645" type="curve" smooth="yes"/>
      <point x="256" y="645"/>
      <point x="80" y="524"/>
      <point x="80" y="253" type="curve" smooth="yes"/>
      <point x="80" y="46"/>
      <point x="232" y="-105"/>
    </contour>
    <contour>
      <point x="455" y="182" type="curve" smooth="yes"/>
      <point x="400" y="182"/>
      <point x="370" y="216"/>
      <point x="370" y="270" type="curve" smooth="yes"/>
      <point x="370" y="323"/>
      <point x="398" y="358"/>
      <point x="459" y="358" type="curve" smooth="yes"/>
      <point x="509" y="358"/>
      <point x="534" y="327"/>
      <point x="534" y="270" type="curve" smooth="yes"/>
      <point x="534" y="202"/>
      <point x="505" y="182"/>
    </contour>
  </outline>
</glyph>
<glyph name="A" format="2">
  <advance width="683"/>
  <unicode hex="0041"/>
  <note>
A
</note>
  <outline>
    <contour>
      <point x="20" y="0" type="line"/>
      <point x="160" y="0" type="line"/>
      <point x="353" y="635" type="line"/>
      <point x="327" y="635" type="line"/>
      <point x="523" y="0" type="line"/>
      <point x="663" y="0" type="line"/>
      <point x="443" y="720" type="line"/>
      <point x="240" y="720" type="line"/>
    </contour>
    <contour>
      <point x="152" y="150" type="line"/>
      <point x="532" y="150" type="line"/>
      <point x="532" y="277" type="line"/>
      <point x="152" y="277" type="line"/>
    </contour>
  </outline>
</glyph>
<glyph name="B" format="2">
  <advance width="637"/>
  <unicode hex="0042"/>
  <note>
B
</note>
  <outline>
    <contour>
      <point x="70" y="0" type="line"/>
      <point x="389" y="0" type="line" smooth="yes"/>
      <point x="536" y="0"/>
      <point x="607" y="89"/>
      <point x="607" y="218" type="curve" smooth="yes"/>
      <point x="607" y="298"/>
      <point x="562" y="370"/>
      <point x="472" y="389" type="curve"/>
      <point x="472" y="364" type="line"/>
      <point x="535" y="382"/>
      <point x="574" y="437"/>
      <point x="574" y="518" type="curve" smooth="yes"/>
      <point x="574" y="613"/>
      <point x="512" y="720"/>
      <point x="358" y="720" type="curve" smooth="yes"/>
      <point x="70" y="720" type="line"/>
    </contour>
    <contour>
      <point x="208" y="128" type="line"/>
      <point x="208" y="312" type="line"/>
      <point x="375" y="312" type="line" smooth="yes"/>
      <point x="438" y="312"/>
      <point x="470" y="274"/>
      <point x="470" y="223" type="curve" smooth="yes"/>
      <point x="470" y="165"/>
      <point x="430" y="128"/>
      <point x="375" y="128" type="curve" smooth="yes"/>
    </contour>
    <contour>
      <point x="208" y="439" type="line"/>
      <point x="208" y="593" type="line"/>
      <point x="356" y="593" type="line" smooth="yes"/>
      <point x="408" y="593"/>
      <point x="436" y="559"/>
      <point x="436" y="515" type="curve" smooth="yes"/>
      <point x="436" y="462"/>
      <point x="402" y="439"/>
      <point x="356" y="439" type="curve" smooth="yes"/>
    </contour>
  </outline>
</glyph>
<glyph name="F" format="2">
  <advance width="530"/>
  <unicode hex="0046"/>
  <note>
F
</note>
  <outline>
    <contour>
      <point x="70" y="0" type="line"/>
      <point x="206" y="0" type="line"/>
      <point x="206" y="292" type="line"/>
      <point x="450" y="292" type="line"/>
      <point x="450" y="428" type="line"/>
      <point x="206" y="428" type="line"/>
      <point x="206" y="584" type="line"/>
      <point x="510" y="584" type="line"/>
      <point x="510" y="720" type="line"/>
      <point x="70" y="720" type="line"/>
    </contour>
  </outline>
</glyph>
<glyph name="G" format="2">
  <advance width="741"/>
  <unicode hex="0047"/>
  <note>
G
</note>
  <outline>
    <contour>
      <point x="370" y="-15" type="curve" smooth="yes"/>
      <point x="578" y="-15"/>
      <point x="711" y="132"/>
      <point x="711" y="339" type="curve" smooth="yes"/>
      <point x="711" y="342"/>
      <point x="710" y="372"/>
      <point x="709" y="381" type="curve"/>
      <point x="450" y="381" type="line"/>
      <point x="450" y="276" type="line"/>
      <point x="564" y="276" type="line"/>
      <point x="542" y="162"/>
      <point x="472" y="111"/>
      <point x="379" y="113" type="curve" smooth="yes"/>
      <point x="242" y="115"/>
      <point x="174" y="210"/>
      <point x="174" y="360" type="curve" smooth="yes"/>
      <point x="174" y="510"/>
      <point x="242" y="609"/>
      <point x="379" y="607" type="curve" smooth="yes"/>
      <point x="471" y="606"/>
      <point x="530" y="552"/>
      <point x="556" y="468" type="curve"/>
      <point x="695" y="488" type="line"/>
      <point x="659" y="645"/>
      <point x="555" y="735"/>
      <point x="370" y="735" type="curve" smooth="yes"/>
      <point x="182" y="735"/>
      <point x="30" y="599"/>
      <point x="30" y="360" type="curve" smooth="yes"/>
      <point x="30" y="116"/>
      <point x="188" y="-15"/>
    </contour>
  </outline>
</glyph>
<glyph name="K" format="2">
  <advance width="665"/>
  <unicode hex="004B"/>
  <note>
K
</note>
  <outline>
    <contour>
      <point x="70" y="0" type="line"/>
      <point x="206" y="0" type="line"/>
      <point x="206" y="328" type="line"/>
      <point x="493" y="0" type="line"/>
      <point x="665" y="0" type="line"/>
      <point x="345" y="365" type="line"/>
      <point x="646" y="720" type="line"/>
      <point x="480" y="720" type="line"/>
      <point x="206" y="388" type="line"/>
      <point x="206" y="720" type="line"/>
      <point x="70" y="720" type="line"/>
    </contour>
  </outline>
</glyph>
<glyph name="N" format="2">
  <advance width="729"/>
  <unicode hex="004E"/>
  <note>
N
</note>
  <outline>
    <contour>
      <point x="70" y="0" type="line"/>
      <point x="208" y="0" type="line"/>
      <point x="208" y="480" type="line"/>
      <point x="521" y="0" type="line"/>
      <point x="659" y="0" type="line"/>
      <point x="659" y="720" type="line"/>
      <point x="521" y="720" type="line"/>
      <point x="521" y="240" type="line"/>
      <point x="208" y="720" type="line"/>
      <point x="70" y="720" type="line"/>
    </contour>
  </outline>
</glyph>
<glyph name="Q" format="2">
  <advance width="758"/>
  <unicode hex="0051"/>
  <note>
Q
</note>
  <outline>
    <contour>
      <point x="633" y="-15" type="line"/>
      <point x="716" y="69" type="line"/>
      <point x="507" y="278" type="line"/>
      <point x="423" y="194" type="line"/>
    </contour>
    <component base="O"/>
  </outline>
</glyph>
<glyph name="U" format="2">
  <advance width="726"/>
  <unicode hex="0055"/>
  <note>
U
</note>
  <outline>
    <contour>
      <point x="363" y="-15" type="curve" smooth="yes"/>
      <point x="537" y="-15"/>
      <point x="656" y="97"/>
      <point x="656" y="270" type="curve" smooth="yes"/>
      <point x="656" y="720" type="line"/>
      <point x="518" y="720" type="line"/>
      <point x="518" y="271" type="line" smooth="yes"/>
      <point x="518" y="178"/>
      <point x="451" y="113"/>
      <point x="363" y="113" type="curve" smooth="yes"/>
      <point x="277" y="113"/>
      <point x="208" y="176"/>
      <point x="208" y="271" type="curve" smooth="yes"/>
      <point x="208" y="720" type="line"/>
      <point x="70" y="719" type="line"/>
      <point x="70" y="270" type="line" smooth="yes"/>
      <point x="70" y="97"/>
      <point x="189" y="-15"/>
    </contour>
  </outline>
</glyph>
<glyph name="X" format="2">
  <advance width="672"/>
  <unicode hex="0058"/>
  <note>
X
</note>
  <outline>
    <contour>
      <point x="10" y="0" type="line"/>
      <point x="178" y="0" type="line"/>
      <point x="337" y="248" type="line"/>
      <point x="495" y="0" type="line"/>
      <point x="662" y="0" type="line"/>
      <point x="421" y="364" type="line"/>
      <point x="656" y="720" type="line"/>
      <point x="488" y="720" type="line"/>
      <point x="337" y="480" type="line"/>
      <point x="184" y="720" type="line"/>
      <point x="17" y="720" type="line"/>
      <point x="252" y="364" type="line"/>
    </contour>
  </outline>
</glyph>
<glyph name="Y" format="2">
  <advance width="630"/>
  <unicode hex="0059"/>
  <note>
Y
</note>
  <outline>
    <contour>
      <point x="246" y="0" type="line"/>
      <point x="384" y="0" type="line"/>
      <point x="384" y="293" type="line"/>
      <point x="630" y="720" type="line"/>
      <point x="471" y="720" type="line"/>
      <point x="315" y="449" type="line"/>
      <point x="159" y="720" type="line"/>
      <point x="0" y="720" type="line"/>
      <point x="246" y="293" type="line"/>
    </contour>
  </outline>
</glyph>
<glyph name="bracketleft" format="2">
  <advance width="429"/>
  <unicode hex="005B"/>
  <outline>
    <contour>
      <point x="140" y="-210" type="line"/>
      <point x="369" y="-210" type="line"/>
      <point x="369" y="-90" type="line"/>
      <point x="260" y="-90" type="line"/>
      <point x="260" y="780" type="line"/>
      <point x="369" y="780" type="line"/>
      <point x="369" y="900" type="line"/>
      <point x="140" y="900" type="line"/>
    </contour>
  </outline>
</glyph>
<glyph name="a" format="2">
  <advance width="583"/>
  <unicode hex="0061"/>
  <note>
a
</note>
  <outline>
    <contour>
      <point x="227" y="-15" type="curve" smooth="yes"/>
      <point x="325" y="-15"/>
      <point x="377" y="29"/>
      <point x="422" y="88" type="curve"/>
      <point x="404" y="111" type="line"/>
      <point x="404" y="0" type="line"/>
      <point x="523" y="0" type="line"/>
      <point x="523" y="322" type="line"/>
      <point x="523" y="341"/>
      <point x="523" y="381"/>
      <point x="511" y="420" type="curve" smooth="yes"/>
      <point x="485" y="504"/>
      <point x="411" y="555"/>
      <point x="294" y="555" type="curve" smooth="yes"/>
      <point x="174" y="555"/>
      <point x="95" y="484"/>
      <point x="59" y="402" type="curve"/>
      <point x="181" y="365" type="line"/>
      <point x="200" y="410"/>
      <point x="243" y="431"/>
      <point x="290" y="431" type="curve" smooth="yes"/>
      <point x="347" y="431"/>
      <point x="398" y="403"/>
      <point x="387" y="315" type="curve"/>
      <point x="419" y="341" type="line"/>
      <point x="296" y="325" type="line" smooth="yes"/>
      <point x="201" y="313"/>
      <point x="40" y="289"/>
      <point x="40" y="145" type="curve" smooth="yes"/>
      <point x="40" y="53"/>
      <point x="106" y="-15"/>
    </contour>
    <contour>
      <point x="249" y="91" type="curve" smooth="yes"/>
      <point x="201" y="91"/>
      <point x="173" y="116"/>
      <point x="173" y="150" type="curve" smooth="yes"/>
      <point x="173" y="214"/>
      <point x="272" y="229"/>
      <point x="324" y="235" type="curve" smooth="yes"/>
      <point x="438" y="249" type="line"/>
      <point x="389" y="266" type="line"/>
      <point x="391" y="220"/>
      <point x="386" y="184"/>
      <point x="370" y="156" type="curve" smooth="yes"/>
      <point x="351" y="124"/>
      <point x="304" y="91"/>
    </contour>
  </outline>
</glyph>
<glyph name="b" format="2">
  <advance width="625"/>
  <unicode hex="0062"/>
  <note>
b
</note>
  <outline>
    <contour>
      <point x="336" y="-15" type="curve" smooth="yes"/>
      <point x="485" y="-15"/>
      <point x="585" y="108"/>
      <point x="585" y="270" type="curve" smooth="yes"/>
      <point x="585" y="435"/>
      <point x="484" y="555"/>
      <point x="329" y="555" type="curve" smooth="yes"/>
      <point x="175" y="555"/>
      <point x="93" y="432"/>
      <point x="93" y="270" type="curve" smooth="yes"/>
      <point x="93" y="108"/>
      <point x="175" y="-15"/>
    </contour>
    <contour>
      <point x="70" y="0" type="line"/>
      <point x="190" y="0" type="line"/>
      <point x="190" y="370" type="line"/>
      <point x="207" y="370" type="line"/>
      <point x="207" y="720" type="line"/>
      <point x="70" y="720" type="line"/>
    </contour>
    <contour>
      <point x="314" y="106" type="curve" smooth="yes"/>
      <point x="223" y="106"/>
      <point x="190" y="172"/>
      <point x="190" y="270" type="curve" smooth="yes"/>
      <point x="190" y="368"/>
      <point x="224" y="434"/>
      <point x="309" y="434" type="curve" smooth="yes"/>
      <point x="400" y="434"/>
      <point x="441" y="360"/>
      <point x="441" y="270" type="curve" smooth="yes"/>
      <point x="441" y="179"/>
      <point x="402" y="106"/>
    </contour>
  </outline>
</glyph>
<glyph name="g" format="2">
  <advance width="624"/>
  <unicode hex="0067"/>
  <note>
g
</note>
  <outline>
    <contour>
      <point x="301" y="-255" type="curve" smooth="yes"/>
      <point x="420" y="-255"/>
      <point x="520" y="-209"/>
      <point x="546" y="-110" type="curve" smooth="yes"/>
      <point x="552" y="-87"/>
      <point x="554" y="-64"/>
      <point x="554" y="-37" type="curve" smooth="yes"/>
      <point x="554" y="540" type="line"/>
      <point x="435" y="540" type="line"/>
      <point x="435" y="122" type="line"/>
      <point x="418" y="122" type="line"/>
      <point x="418" y="-35" type="line" smooth="yes"/>
      <point x="420" y="-95"/>
      <point x="363" y="-126"/>
      <point x="302" y="-126" type="curve" smooth="yes"/>
      <point x="264" y="-126"/>
      <point x="229" y="-109"/>
      <point x="212" y="-77" type="curve"/>
      <point x="86" y="-138" type="line"/>
      <point x="127" y="-208"/>
      <point x="209" y="-255"/>
    </contour>
    <contour>
      <point x="289" y="-15" type="curve" smooth="yes"/>
      <point x="450" y="-15"/>
      <point x="532" y="108"/>
      <point x="532" y="270" type="curve" smooth="yes"/>
      <point x="532" y="432"/>
      <point x="450" y="555"/>
      <point x="296" y="555" type="curve" smooth="yes"/>
      <point x="141" y="555"/>
      <point x="40" y="435"/>
      <point x="40" y="270" type="curve" smooth="yes"/>
      <point x="40" y="108"/>
      <point x="140" y="-15"/>
    </contour>
    <contour>
      <point x="311" y="106" type="curve" smooth="yes"/>
      <point x="223" y="106"/>
      <point x="184" y="179"/>
      <point x="184" y="270" type="curve" smooth="yes"/>
      <point x="184" y="360"/>
      <point x="225" y="434"/>
      <point x="316" y="434" type="curve" smooth="yes"/>
      <point x="401" y="434"/>
      <point x="435" y="368"/>
      <point x="435" y="270" type="curve" smooth="yes"/>
      <point x="435" y="172"/>
      <point x="402" y="106"/>
    </contour>
  </outline>
</glyph>
<glyph name="k" format="2">
  <advance width="553"/>
  <unicode hex="006B"/>
  <note>
k
</note>
  <outline>
    <contour>
      <point x="70" y="0" type="line"/>
      <point x="209" y="0" type="line"/>
      <point x="209" y="260" type="line"/>
      <point x="396" y="0" type="line"/>
      <point x="573" y="0" type="line"/>
      <point x="365" y="270" type="line"/>
      <point x="560" y="540" type="line"/>
      <point x="392" y="540" type="line"/>
      <point x="209" y="280" type="line"/>
      <point x="209" y="720" type="line"/>
      <point x="71" y="720" type="line"/>
    </contour>
  </outline>
</glyph>
<glyph name="l" format="2">
  <advance width="296"/>
  <unicode hex="006C"/>
  <note>
l
</note>
  <outline>
    <contour>
      <point x="80" y="0" type="line"/>
      <point x="216" y="0" type="line"/>
      <point x="216" y="735" type="line"/>
      <point x="80" y="735" type="line"/>
    </contour>
  </outline>
</glyph>
<glyph name="t" format="2">
  <advance width="444"/>
  <unicode hex="0074"/>
  <note>
t
</note>
  <outline>
    <contour>
      <point x="394" y="0" type="curve"/>
      <point x="394" y="113" type="line"/>
      <point x="330" y="104"/>
      <point x="273" y="102"/>
      <point x="249" y="140" type="curve" smooth="yes"/>
      <point x="236" y="160"/>
      <point x="238" y="195"/>
      <point x="238" y="237" type="curve" smooth="yes"/>
      <point x="238" y="690" type="line"/>
      <point x="102" y="690" type="line"/>
      <point x="102" y="229" type="line" smooth="yes"/>
      <point x="102" y="164"/>
      <point x="97" y="116"/>
      <point x="124" y="67" type="curve" smooth="yes"/>
      <point x="168" y="-12"/>
      <point x="282" y="-21"/>
    </contour>
    <contour>
      <point x="10" y="435" type="line"/>
      <point x="394" y="435" type="line"/>
      <point x="394" y="540" type="line"/>
      <point x="10" y="540" type="line"/>
    </contour>
  </outline>
</glyph>
<glyph name="w" format="2">
  <advance width="814"/>
  <unicode hex="0077"/>
  <note>
w
</note>
  <outline>
    <contour>
      <point x="185" y="0" type="line"/>
      <point x="289" y="0" type="line"/>
      <point x="407" y="352" type="line"/>
      <point x="516" y="0" type="line"/>
      <point x="629" y="0" type="line"/>
      <point x="794" y="540" type="line"/>
      <point x="661" y="540" type="line"/>
      <point x="563" y="218" type="line"/>
      <point x="464" y="540" type="line"/>
      <point x="351" y="540" type="line"/>
      <point x="252" y="218" type="line"/>
      <point x="154" y="540" type="line"/>
      <point x="20" y="541" type="line"/>
    </contour>
  </outline>
</glyph>
<glyph name="x" format="2">
  <advance width="563"/>
  <unicode hex="0078"/>
  <note>
x
</note>
  <outline>
    <contour>
      <point x="10" y="0" type="line"/>
      <point x="170" y="0" type="line"/>
      <point x="282" y="166" type="line"/>
      <point x="393" y="0" type="line"/>
      <point x="553" y="0" type="line"/>
      <point x="359" y="273" type="line"/>
      <point x="548" y="540" type="line"/>
      <point x="388" y="540" type="line"/>
      <point x="282" y="380" type="line"/>
      <point x="174" y="540" type="line"/>
      <point x="14" y="540" type="line"/>
      <point x="203" y="273" type="line"/>
    </contour>
  </outline>
</glyph>
<glyph name="z" format="2">
  <advance width="535"/>
  <unicode hex="007A"/>
  <note>
z
</note>
  <outline>
    <contour>
      <point x="20" y="0" type="line"/>
      <point x="485" y="0" type="line"/>
      <point x="485" y="118" type="line"/>
      <point x="231" y="118" type="line"/>
      <point x="495" y="523" type="line"/>
      <point x="495" y="540" type="line"/>
      <point x="50" y="540" type="line"/>
      <point x="50" y="422" type="line"/>
      <point x="285" y="422" type="line"/>
      <point x="20" y="17" type="line"/>
    </contour>
  </outline>
</glyph>
<glyph name="braceleft" format="2">
  <advance width="459"/>
  <unicode hex="007B"/>
  <outline>
    <contour>
      <point x="348" y="-210" type="curve" smooth="yes"/>
      <point x="419" y="-210" type="line"/>
      <point x="419" y="-83" type="line"/>
      <point x="358" y="-83" type="line" smooth="yes"/>
      <point x="342" y="-83"/>
      <point x="329" y="-70"/>
      <point x="329" y="-53" type="curve" smooth="yes"/>
      <point x="329" y="229" type="line" smooth="yes"/>
      <point x="329" y="261"/>
      <point x="319" y="292"/>
      <point x="300" y="319" type="curve" smooth="yes"/>
      <point x="281" y="345" type="line"/>
      <point x="300" y="371" type="line" smooth="yes"/>
      <point x="319" y="398"/>
      <point x="329" y="429"/>
      <point x="329" y="461" type="curve" smooth="yes"/>
      <point x="329" y="743" type="line" smooth="yes"/>
      <point x="329" y="759"/>
      <point x="342" y="772"/>
      <point x="358" y="772" type="curve" smooth="yes"/>
      <point x="419" y="772" type="line"/>
      <point x="419" y="900" type="line"/>
      <point x="348" y="900" type="line" smooth="yes"/>
      <point x="256" y="900"/>
      <point x="201" y="844"/>
      <point x="201" y="753" type="curve" smooth="yes"/>
      <point x="201" y="461" type="line" smooth="yes"/>
      <point x="201" y="455"/>
      <point x="199" y="450"/>
      <point x="196" y="445" type="curve" smooth="yes"/>
      <point x="151" y="381" type="line" smooth="yes"/>
      <point x="136" y="359"/>
      <point x="136" y="331"/>
      <point x="151" y="309" type="curve" smooth="yes"/>
      <point x="196" y="245" type="line" smooth="yes"/>
      <point x="199" y="241"/>
      <point x="201" y="235"/>
      <point x="201" y="229" type="curve" smooth="yes"/>
      <point x="201" y="-63" type="line" smooth="yes"/>
      <point x="201" y="-155"/>
      <point x="256" y="-210"/>
    </contour>
  </outline>
</glyph>
<glyph name="cent" format="2">
  <advance width="583"/>
  <unicode hex="00A2"/>
  <outline>
    <contour>
      <point x="262" y="-29" type="line"/>
      <point x="367" y="-29" type="line"/>
      <point x="367" y="65" type="line"/>
      <point x="461" y="83"/>
      <point x="527" y="143"/>
      <point x="553" y="239" type="curve"/>
      <point x="414" y="268" type="line"/>
      <point x="398" y="216"/>
      <point x="369" y="187"/>
      <point x="308" y="187" type="curve" smooth="yes"/>
      <point x="226" y="187"/>
      <point x="184" y="251"/>
      <point x="184" y="345" type="curve" smooth="yes"/>
      <point x="184" y="435"/>
      <point x="222" y="503"/>
      <point x="308" y="503" type="curve" smooth="yes"/>
      <point x="358" y="503"/>
      <point x="401" y="470"/>
      <point x="417" y="414" type="curve"/>
      <point x="553" y="450" type="line"/>
      <point x="533" y="544"/>
      <point x="464" y="607"/>
      <point x="367" y="625" type="curve"/>
      <point x="367" y="720" type="line"/>
      <point x="262" y="720" type="line"/>
      <point x="262" y="626" type="line"/>
      <point x="125" y="605"/>
      <point x="40" y="492"/>
      <point x="40" y="345" type="curve" smooth="yes"/>
      <point x="40" y="198"/>
      <point x="122" y="84"/>
      <point x="262" y="63" type="curve"/>
    </contour>
  </outline>
</glyph>
<glyph name="sterling" format="2">
  <advance width="538"/>
  <unicode hex="00A3"/>
  <outline>
    <contour>
      <point x="18" y="0" type="line"/>
      <point x="455" y="0" type="line"/>
      <point x="455" y="127" type="line"/>
      <point x="232" y="127" type="line"/>
      <point x="233" y="534" type="line" smooth="yes"/>
      <point x="233" y="576"/>
      <point x="261" y="607"/>
      <point x="303" y="607" type="curve" smooth="yes"/>
      <point x="347" y="607"/>
      <point x="370" y="569"/>
      <point x="387" y="511" type="curve"/>
      <point x="509" y="551" type="line"/>
      <point x="472" y="655"/>
      <point x="411" y="735"/>
      <point x="303" y="735" type="curve" smooth="yes"/>
      <point x="187" y="735"/>
      <point x="94" y="651"/>
      <point x="94" y="541" type="curve" smooth="yes"/>
      <point x="94" y="203" type="line" smooth="yes"/>
      <point x="94" y="163"/>
      <point x="60" y="127"/>
      <point x="19" y="127" type="curve" smooth="yes"/>
      <point x="18" y="127" type="line"/>
    </contour>
    <contour>
      <point x="18" y="296" type="line"/>
      <point x="374" y="296" type="line"/>
      <point x="374" y="424" type="line"/>
      <point x="18" y="424" type="line"/>
    </contour>
  </outline>
</glyph>
<glyph name="section" format="2">
  <advance width="547"/>
  <unicode hex="00A7"/>
  <outline>
    <contour>
      <point x="280" y="-135" type="curve" smooth="yes"/>
      <point x="405" y="-135"/>
      <point x="497" y="-72"/>
      <point x="497" y="45" type="curve" smooth="yes"/>
      <point x="497" y="135"/>
      <point x="442" y="171"/>
      <point x="327" y="203" type="curve" smooth="yes"/>
      <point x="236" y="228"/>
      <point x="183" y="233"/>
      <point x="183" y="275" type="curve" smooth="yes"/>
      <point x="183" y="304"/>
      <point x="207" y="321"/>
      <point x="256" y="338" type="curve"/>
      <point x="243" y="395" type="line"/>
      <point x="152" y="395"/>
      <point x="48" y="355"/>
      <point x="48" y="255" type="curve" smooth="yes"/>
      <point x="48" y="179"/>
      <point x="107" y="137"/>
      <point x="228" y="106" type="curve" smooth="yes"/>
      <point x="327" y="81"/>
      <point x="358" y="73"/>
      <point x="358" y="36" type="curve" smooth="yes"/>
      <point x="358" y="-2"/>
      <point x="324" y="-18"/>
      <point x="289" y="-18" type="curve" smooth="yes"/>
      <point x="242" y="-18"/>
      <point x="200" y="10"/>
      <point x="189" y="63" type="curve"/>
      <point x="50" y="42" type="line"/>
      <point x="70" y="-79"/>
      <point x="162" y="-135"/>
    </contour>
    <contour>
      <point x="305" y="137" type="line"/>
      <point x="432" y="128"/>
      <point x="507" y="180"/>
      <point x="507" y="279" type="curve" smooth="yes"/>
      <point x="507" y="365"/>
      <point x="451" y="401"/>
      <point x="337" y="433" type="curve" smooth="yes"/>
      <point x="251" y="457"/>
      <point x="193" y="462"/>
      <point x="193" y="505" type="curve" smooth="yes"/>
      <point x="193" y="535"/>
      <point x="221" y="549"/>
      <point x="256" y="549" type="curve" smooth="yes"/>
      <point x="302" y="549"/>
      <point x="325" y="526"/>
      <point x="333" y="480" type="curve"/>
      <point x="472" y="505" type="line"/>
      <point x="457" y="611"/>
      <point x="361" y="665"/>
      <point x="260" y="665" type="curve" smooth="yes"/>
      <point x="161" y="665"/>
      <point x="58" y="613"/>
      <point x="58" y="495" type="curve" smooth="yes"/>
      <point x="58" y="405"/>
      <point x="117" y="367"/>
      <point x="238" y="336" type="curve" smooth="yes"/>
      <point x="337" y="311"/>
      <point x="368" y="303"/>
      <point x="368" y="266" type="curve" smooth="yes"/>
      <point x="368" y="228"/>
      <point x="334" y="202"/>
      <point x="301" y="192" type="curve"/>
    </contour>
  </outline>
</glyph>
<glyph name="copyright" format="2">
  <advance width="914"/>
  <unicode hex="00A9"/>
  <outline>
    <contour>
      <point x="457" y="-70" type="curve" smooth="yes"/>
      <point x="693" y="-70"/>
      <point x="884" y="121"/>
      <point x="884" y="357" type="curve" smooth="yes"/>
      <point x="884" y="593"/>
      <point x="693" y="784"/>
      <point x="457" y="784" type="curve" smooth="yes"/>
      <point x="221" y="784"/>
      <point x="30" y="593"/>
      <point x="30" y="357" type="curve" smooth="yes"/>
      <point x="30" y="121"/>
      <point x="221" y="-70"/>
    </contour>
    <contour>
      <point x="466" y="143" type="curve" smooth="yes"/>
      <point x="519" y="143"/>
      <point x="553" y="155"/>
      <point x="583" y="178" type="curve" smooth="yes"/>
      <point x="616" y="203"/>
      <point x="638" y="239"/>
      <point x="649" y="278" type="curve"/>
      <point x="545" y="299" type="line"/>
      <point x="539" y="282"/>
      <point x="533" y="270"/>
      <point x="519" y="256" type="curve" smooth="yes"/>
      <point x="507" y="244"/>
      <point x="490" y="239"/>
      <point x="467" y="239" type="curve" smooth="yes"/>
      <point x="434" y="239"/>
      <point x="411" y="251"/>
      <point x="395" y="273" type="curve" smooth="yes"/>
      <point x="378" y="297"/>
      <point x="372" y="326"/>
      <point x="372" y="357" type="curve" smooth="yes"/>
      <point x="372" y="388"/>
      <point x="377" y="419"/>
      <point x="395" y="442" type="curve" smooth="yes"/>
      <point x="412" y="463"/>
      <point x="435" y="476"/>
      <point x="465" y="476" type="curve" smooth="yes"/>
      <point x="484" y="476"/>
      <point x="502" y="470"/>
      <point x="517" y="457" type="curve" smooth="yes"/>
      <point x="533" y="443"/>
      <point x="542" y="427"/>
      <point x="547" y="409" type="curve"/>
      <point x="649" y="436" type="line"/>
      <point x="638" y="485"/>
      <point x="610" y="521"/>
      <point x="572" y="544" type="curve" smooth="yes"/>
      <point x="538" y="565"/>
      <point x="509" y="571"/>
      <point x="471" y="571" type="curve" smooth="yes"/>
      <point x="398" y="571"/>
      <point x="351" y="548"/>
      <point x="314" y="503" type="curve" smooth="yes"/>
      <point x="281" y="463"/>
      <point x="264" y="414"/>
      <point x="264" y="357" type="curve" smooth="yes"/>
      <point x="264" y="302"/>
      <point x="279" y="254"/>
      <point x="314" y="210" type="curve" smooth="yes"/>
      <point x="352" y="163"/>
      <point x="397" y="143"/>
    </contour>
    <contour>
      <point x="457" y="57" type="curve" smooth="yes"/>
      <point x="291" y="57"/>
      <point x="157" y="191"/>
      <point x="157" y="357" type="curve" smooth="yes"/>
      <point x="157" y="523"/>
      <point x="291" y="657"/>
      <point x="457" y="657" type="curve" smooth="yes"/>
      <point x="623" y="657"/>
      <point x="757" y="523"/>
      <point x="757" y="357" type="curve" smooth="yes"/>
      <point x="757" y="191"/>
      <point x="623" y="57"/>
    </contour>
  </outline>
</glyph>
<glyph name="guillemetleft" format="2">
  <advance width="603"/>
  <unicode hex="00AB"/>
  <outline>
    <contour>
      <point x="472" y="92" type="line"/>
      <point x="543" y="148" type="line"/>
      <point x="410" y="315" type="line"/>
      <point x="543" y="482" type="line"/>
      <point x="472" y="538" type="line"/>
      <point x="295" y="315" type="line"/>
    </contour>
    <contour>
      <point x="257" y="92" type="line"/>
      <point x="328" y="148" type="line"/>
      <point x="195" y="315" type="line"/>
      <point x="328" y="482" type="line"/>
      <point x="257" y="538" type="line"/>
      <point x="80" y="315" type="line"/>
    </contour>
  </outline>
</glyph>
<glyph name="plusminus" format="2">
  <advance width="600"/>
  <unicode hex="00B1"/>
  <outline>
    <contour>
      <point x="248" y="220" type="line"/>
      <point x="353" y="220" type="line"/>
      <point x="353" y="328" type="line"/>
      <point x="540" y="328" type="line"/>
      <point x="540" y="433" type="line"/>
      <point x="353" y="433" type="line"/>
      <point x="353" y="540" type="line"/>
      <point x="248" y="540" type="line"/>
      <point x="248" y="433" type="line"/>
      <point x="60" y="433" type="line"/>
      <point x="60" y="328" type="line"/>
      <point x="248" y="328" type="line"/>
    </contour>
    <contour>
      <point x="60" y="60" type="line"/>
      <point x="540" y="60" type="line"/>
      <point x="540" y="165" type="line"/>
      <point x="60" y="165" type="line"/>
    </contour>
  </outline>
</glyph>
<glyph name="periodcentered" format="2">
  <advance width="640"/>
  <unicode hex="00B7"/>
  <outline>
    <contour>
      <point x="322" y="235" type="curve" smooth="yes"/>
      <point x="364" y="235"/>
      <point x="400" y="269"/>
      <point x="400" y="315" type="curve" smooth="yes"/>
      <point x="400" y="361"/>
      <point x="364" y="395"/>
      <point x="322" y="395" type="curve" smooth="yes"/>
      <point x="276" y="395"/>
      <point x="240" y="361"/>
      <point x="240" y="315" type="curve" smooth="yes"/>
      <point x="240" y="269"/>
      <point x="276" y="235"/>
    </contour>
  </outline>
</glyph>
<glyph name="Thorn" format="2">
  <advance width="642"/>
  <unicode hex="00DE"/>
  <outline>
    <contour>
      <point x="70" y="0" type="line"/>
      <point x="208" y="0" type="line"/>
      <point x="208" y="123" type="line"/>
      <point x="371" y="123" type="line" smooth="yes"/>
      <point x="450" y="123"/>
      <point x="522" y="161"/>
      <point x="564" y="219" type="curve" smooth="yes"/>
      <point x="594" y="259"/>
      <point x="613" y="310"/>
      <point x="612" y="360" type="curve" smooth="yes"/>
      <point x="611" y="410"/>
      <point x="594" y="461"/>
      <point x="564" y="501" type="curve" smooth="yes"/>
      <point x="535" y="542"/>
      <point x="492" y="572"/>
      <point x="444" y="587" type="curve" smooth="yes"/>
      <point x="421" y="594"/>
      <point x="396" y="598"/>
      <point x="371" y="598" type="curve" smooth="yes"/>
      <point x="208" y="598" type="line"/>
      <point x="208" y="720" type="line"/>
      <point x="70" y="720" type="line"/>
    </contour>
    <contour>
      <point x="208" y="250" type="line"/>
      <point x="208" y="470" type="line"/>
      <point x="370" y="470" type="line" smooth="yes"/>
      <point x="398" y="470"/>
      <point x="429" y="453"/>
      <point x="448" y="431" type="curve" smooth="yes"/>
      <point x="465" y="412"/>
      <point x="473" y="386"/>
      <point x="474" y="360" type="curve" smooth="yes"/>
      <point x="475" y="336"/>
      <point x="466" y="313"/>
      <point x="452" y="294" type="curve" smooth="yes"/>
      <point x="431" y="266"/>
      <point x="397" y="250"/>
      <point x="370" y="250" type="curve" smooth="yes"/>
    </contour>
  </outline>
</glyph>
<glyph name="ae" format="2">
  <advance width="933"/>
  <unicode hex="00E6"/>
  <outline>
    <contour>
      <point x="660" y="-15" type="curve" smooth="yes"/>
      <point x="756" y="-15"/>
      <point x="849" y="43"/>
      <point x="887" y="141" type="curve"/>
      <point x="759" y="180" type="line"/>
      <point x="739" y="135"/>
      <point x="700" y="112"/>
      <point x="653" y="112" type="curve" smooth="yes"/>
      <point x="572" y="112"/>
      <point x="531" y="173"/>
      <point x="531" y="270" type="curve" smooth="yes"/>
      <point x="531" y="366"/>
      <point x="561" y="437"/>
      <point x="653" y="437" type="curve" smooth="yes"/>
      <point x="744" y="437"/>
      <point x="764" y="380"/>
      <point x="764" y="282" type="curve"/>
      <point x="764" y="232" type="line"/>
      <point x="892" y="232" type="line"/>
      <point x="906" y="420"/>
      <point x="820" y="555"/>
      <point x="653" y="555" type="curve" smooth="yes"/>
      <point x="498" y="555"/>
      <point x="395" y="438"/>
      <point x="395" y="263" type="curve" smooth="yes"/>
      <point x="395" y="102"/>
      <point x="501" y="-15"/>
    </contour>
    <contour>
      <point x="249" y="91" type="curve" smooth="yes"/>
      <point x="201" y="91"/>
      <point x="173" y="116"/>
      <point x="173" y="150" type="curve" smooth="yes"/>
      <point x="173" y="214"/>
      <point x="272" y="229"/>
      <point x="324" y="235" type="curve" smooth="yes"/>
      <point x="438" y="249" type="line"/>
      <point x="389" y="266" type="line"/>
      <point x="391" y="220"/>
      <point x="386" y="184"/>
      <point x="370" y="156" type="curve" smooth="yes"/>
      <point x="351" y="124"/>
      <point x="304" y="91"/>
    </contour>
    <contour>
      <point x="227" y="-15" type="curve" smooth="yes"/>
      <point x="326" y="-15"/>
      <point x="401" y="20"/>
      <point x="454" y="106" type="curve"/>
      <point x="523" y="322" type="line"/>
      <point x="523" y="341"/>
      <point x="523" y="381"/>
      <point x="511" y="420" type="curve" smooth="yes"/>
      <point x="485" y="504"/>
      <point x="411" y="555"/>
      <point x="294" y="555" type="curve" smooth="yes"/>
      <point x="174" y="555"/>
      <point x="95" y="484"/>
      <point x="59" y="402" type="curve"/>
      <point x="181" y="365" type="line"/>
      <point x="200" y="410"/>
      <point x="243" y="431"/>
      <point x="290" y="431" type="curve" smooth="yes"/>
      <point x="347" y="431"/>
      <point x="398" y="403"/>
      <point x="387" y="315" type="curve"/>
      <point x="419" y="341" type="line"/>
      <point x="296" y="325" type="line" smooth="yes"/>
      <point x="201" y="313"/>
      <point x="40" y="289"/>
      <point x="40" y="145" type="curve" smooth="yes"/>
      <point x="40" y="53"/>
      <point x="106" y="-15"/>
    </contour>
    <contour>
      <point x="491" y="232" type="line"/>
      <point x="830" y="232" type="line"/>
      <point x="830" y="337" type="line"/>
      <point x="491" y="337" type="line"/>
    </contour>
  </outline>
</glyph>
<glyph name="eogonek" format="2">
  <advance width="608"/>
  <unicode hex="0119"/>
  <outline>
    <contour>
      <point x="489" y="-230" type="curve" smooth="yes"/>
      <point x="511" y="-220"/>
      <point x="527" y="-205"/>
      <point x="537" y="-187" type="curve"/>
      <point x="490" y="-125" type="line"/>
      <point x="474" y="-138"/>
      <point x="448" y="-145"/>
      <point x="436" y="-131" type="curve" smooth="yes"/>
      <point x="427" y="-121"/>
      <point x="430" y="-103"/>
      <point x="432" y="-97" type="curve" smooth="yes"/>
      <point x="438" y="-78"/>
      <point x="450" y="-50"/>
      <point x="468" y="-18" type="curve" smooth="yes"/>
      <point x="486" y="14"/>
      <point x="509" y="53"/>
      <point x="540" y="102" type="curve"/>
      <point x="455" y="116" type="line"/>
      <point x="430" y="89"/>
      <point x="402" y="46"/>
      <point x="388" y="24" type="curve" smooth="yes"/>
      <point x="374" y="2"/>
      <point x="351" y="-32"/>
      <point x="338" y="-62" type="curve" smooth="yes"/>
      <point x="318" y="-108"/>
      <point x="327" y="-162"/>
      <point x="353" y="-195" type="curve" smooth="yes"/>
      <point x="384" y="-235"/>
      <point x="442" y="-251"/>
    </contour>
    <component base="e"/>
  </outline>
</glyph>
<glyph name="Hbar" format="2">
  <advance width="754"/>
  <unicode hex="0126"/>
  <outline>
    <contour>
      <point x="10" y="480" type="line"/>
      <point x="744" y="480" type="line"/>
      <point x="744" y="616" type="line"/>
      <point x="10" y="616" type="line"/>
    </contour>
    <component base="H" xOffset="10"/>
  </outline>
</glyph>
<glyph name="Eng" format="2">
  <advance width="729"/>
  <unicode hex="014A"/>
  <outline>
    <contour>
      <point x="509" y="-239" type="curve" smooth="yes"/>
      <point x="606" y="-239"/>
      <point x="659" y="-193"/>
      <point x="659" y="-88" type="curve" smooth="yes"/>
      <point x="659" y="60" type="line"/>
      <point x="443" y="120" type="line"/>
      <point x="482" y="60" type="line" smooth="yes"/>
      <point x="532" y="-18"/>
      <point x="547" y="-48"/>
      <point x="547" y="-79" type="curve" smooth="yes"/>
      <point x="547" y="-123"/>
      <point x="507" y="-132"/>
      <point x="471" y="-132" type="curve" smooth="yes"/>
      <point x="455" y="-132"/>
      <point x="439" y="-130"/>
      <point x="429" y="-129" type="curve"/>
      <point x="429" y="-229" type="line"/>
      <point x="452" y="-235"/>
      <point x="479" y="-239"/>
    </contour>
    <component base="N"/>
  </outline>
</glyph>
<glyph name="eng" format="2">
  <advance width="636"/>
  <unicode hex="014B"/>
  <outline>
    <contour>
      <point x="471" y="-234" type="curve" smooth="yes"/>
      <point x="537" y="-221"/>
      <point x="576" y="-167"/>
      <point x="576" y="-88" type="curve" smooth="yes"/>
      <point x="576" y="2" type="line"/>
      <point x="438" y="2" type="line"/>
      <point x="438" y="-66" type="line" smooth="yes"/>
      <point x="438" y="-147"/>
      <point x="377" y="-136"/>
      <point x="346" y="-134" type="curve"/>
      <point x="346" y="-229" type="line"/>
      <point x="382" y="-238"/>
      <point x="422" y="-244"/>
    </contour>
    <component base="n"/>
  </outline>
</glyph>
<glyph name="acutecomb" format="2">
  <unicode hex="0301"/>
  <outline>
    <contour>
      <point x="154" y="785" type="line"/>
      <point x="435" y="881" type="line"/>
      <point x="402" y="980" type="line"/>
      <point x="120" y="883" type="line"/>
    </contour>
  </outline>
</glyph>
<glyph name="circumflexcomb" format="2">
  <unicode hex="0302"/>
  <outline>
    <contour>
      <point x="168" y="786" type="line"/>
      <point x="300" y="854" type="line"/>
      <point x="432" y="786" type="line"/>
      <point x="480" y="879" type="line"/>
      <point x="300" y="973" type="line"/>
      <point x="120" y="879" type="line"/>
    </contour>
  </outline>
</glyph>
<glyph name="tildecomb" format="2">
  <unicode hex="0303"/>
  <outline>
    <contour>
      <point x="369" y="811" type="curve" smooth="yes"/>
      <point x="436" y="811"/>
      <point x="483" y="866"/>
      <point x="467" y="944" type="curve"/>
      <point x="388" y="944" type="line"/>
      <point x="395" y="922"/>
      <point x="387" y="907"/>
      <point x="365" y="907" type="curve" smooth="yes"/>
      <point x="325" y="907"/>
      <point x="283" y="956"/>
      <point x="220" y="956" type="curve" smooth="yes"/>
      <point x="152" y="956"/>
      <point x="107" y="900"/>
      <point x="123" y="823" type="curve"/>
      <point x="202" y="823" type="line"/>
      <point x="195" y="846"/>
      <point x="203" y="860"/>
      <point x="225" y="860" type="curve" smooth="yes"/>
      <point x="266" y="860"/>
      <point x="305" y="811"/>
    </contour>
  </outline>
</glyph>
<glyph name="brevecomb" format="2">
  <unicode hex="0306"/>
  <outline>
    <contour>
      <point x="279" y="780" type="curve" smooth="yes"/>
      <point x="367" y="780"/>
      <point x="438" y="851"/>
      <point x="438" y="939" type="curve"/>
      <point x="333" y="939" type="line"/>
      <point x="333" y="909"/>
      <point x="309" y="885"/>
      <point x="279" y="885" type="curve" smooth="yes"/>
      <point x="249" y="885"/>
      <point x="225" y="909"/>
      <point x="225" y="939" type="curve"/>
      <point x="120" y="939" type="line"/>
      <point x="120" y="851"/>
      <point x="191" y="780"/>
    </contour>
  </outline>
</glyph>
<glyph name="dieresiscomb" format="2">
  <unicode hex="0308"/>
  <outline>
    <contour>
      <point x="332" y="840" type="line"/>
      <point x="452" y="840" type="line"/>
      <point x="452" y="960" type="line"/>
      <point x="332" y="960" type="line"/>
    </contour>
    <contour>
      <point x="120" y="840" type="line"/>
      <point x="240" y="840" type="line"/>
      <point x="240" y="960" type="line"/>
      <point x="120" y="960" type="line"/>
    </contour>
  </outline>
</glyph>
<glyph name="commaaccentcomb" format="2">
  <unicode hex="0326"/>
  <outline>
    <contour>
      <point x="120" y="-300" type="line"/>
      <point x="196" y="-300"/>
      <point x="248" y="-254"/>
      <point x="248" y="-188" type="curve" smooth="yes"/>
      <point x="248" y="-60" type="line"/>
      <point x="120" y="-60" type="line"/>
      <point x="120" y="-188" type="line"/>
      <point x="191" y="-188" type="line"/>
      <point x="191" y="-238"/>
      <point x="136" y="-243"/>
      <point x="120" y="-243" type="curve"/>
    </contour>
  </outline>
</glyph>
<glyph name="cedillacomb" format="2">
  <unicode hex="0327"/>
  <outline>
    <contour>
      <point x="191" y="-242" type="curve" smooth="yes"/>
      <point x="249" y="-242"/>
      <point x="299" y="-197"/>
      <point x="299" y="-131" type="curve" smooth="yes"/>
      <point x="299" y="-88"/>
      <point x="277" y="-56"/>
      <point x="238" y="-36" type="curve"/>
      <point x="256" y="18" type="line"/>
      <point x="177" y="17" type="line"/>
      <point x="142" y="-85" type="line"/>
      <point x="177" y="-95"/>
      <point x="207" y="-104"/>
      <point x="207" y="-128" type="curve" smooth="yes"/>
      <point x="207" y="-139"/>
      <point x="197" y="-151"/>
      <point x="179" y="-151" type="curve" smooth="yes"/>
      <point x="171" y="-151"/>
      <point x="162" y="-149"/>
      <point x="149" y="-145" type="curve"/>
      <point x="120" y="-223" type="line"/>
      <point x="140" y="-234"/>
      <point x="163" y="-242"/>
    </contour>
  </outline>
</glyph>
<glyph name="ogonekcomb" format="2">
  <unicode hex="0328"/>
  <outline>
    <contour>
      <point x="230" y="-239" type="curve" smooth="yes"/>
      <point x="268" y="-239"/>
      <point x="306" y="-220"/>
      <point x="330" y="-187" type="curve"/>
      <point x="283" y="-125" type="line"/>
      <point x="271" y="-135"/>
      <point x="259" y="-140"/>
      <point x="249" y="-140" type="curve" smooth="yes"/>
      <point x="234" y="-140"/>
      <point x="223" y="-129"/>
      <point x="223" y="-115" type="curve" smooth="yes"/>
      <point x="223" y="-84"/>
      <point x="272" y="-31"/>
      <point x="333" y="0" type="curve"/>
      <point x="276" y="66" type="line"/>
      <point x="187" y="28"/>
      <point x="119" y="-52"/>
      <point x="119" y="-126" type="curve" smooth="yes"/>
      <point x="119" y="-185"/>
      <point x="164" y="-239"/>
    </contour>
  </outline>
</glyph>
<glyph name="slashshortcomb" format="2">
  <unicode hex="0337"/>
  <outline>
    <contour>
      <point x="38" y="161" type="line"/>
      <point x="398" y="367" type="line"/>
      <point x="398" y="514" type="line"/>
      <point x="38" y="308" type="line"/>
    </contour>
  </outline>
</glyph>
<glyph name="dieresistonos" format="2">
  <advance width="600"/>
  <unicode hex="0385"/>
  <outline>
    <contour>
      <point x="413" y="600" type="line"/>
      <point x="518" y="600" type="line"/>
      <point x="518" y="720" type="line"/>
      <point x="413" y="720" type="line"/>
    </contour>
    <contour>
      <point x="82" y="600" type="line"/>
      <point x="187" y="600" type="line"/>
      <point x="187" y="720" type="line"/>
      <point x="82" y="720" type="line"/>
    </contour>
    <component base="tonos" xOffset="17"/>
  </outline>
</glyph>
<glyph name="alpha" format="2">
  <advance width="635"/>
  <unicode hex="03B1"/>
  <outline>
    <contour>
      <point x="292" y="-15" type="curve" smooth="yes"/>
      <point x="364" y="-15"/>
      <point x="425" y="13"/>
      <point x="465" y="59" type="curve"/>
      <point x="445" y="84" type="line"/>
      <point x="445" y="0" type="line"/>
      <point x="565" y="0" type="line"/>
      <point x="565" y="540" type="line"/>
      <point x="445" y="540" type="line"/>
      <point x="445" y="457" type="line"/>
      <point x="465" y="482" type="line"/>
      <point x="425" y="528"/>
      <point x="368" y="555"/>
      <point x="296" y="555" type="curve" smooth="yes"/>
      <point x="141" y="555"/>
      <point x="40" y="435"/>
      <point x="40" y="270" type="curve" smooth="yes"/>
      <point x="40" y="108"/>
      <point x="139" y="-15"/>
    </contour>
    <contour>
      <point x="314" y="106" type="curve" smooth="yes"/>
      <point x="222" y="106"/>
      <point x="184" y="180"/>
      <point x="184" y="269" type="curve" smooth="yes"/>
      <point x="184" y="372"/>
      <point x="234" y="434"/>
      <point x="316" y="434" type="curve" smooth="yes"/>
      <point x="401" y="434"/>
      <point x="435" y="368"/>
      <point x="435" y="270" type="curve" smooth="yes"/>
      <point x="435" y="172"/>
      <point x="401" y="106"/>
    </contour>
  </outline>
</glyph>
<glyph name="beta" format="2">
  <advance width="617"/>
  <unicode hex="03B2"/>
  <outline>
    <contour>
      <point x="70" y="-240" type="line"/>
      <point x="207" y="-240" type="line"/>
      <point x="207" y="2" type="line"/>
      <point x="241" y="-10"/>
      <point x="279" y="-15"/>
      <point x="320" y="-15" type="curve" smooth="yes"/>
      <point x="480" y="-15"/>
      <point x="587" y="67"/>
      <point x="587" y="212" type="curve" smooth="yes"/>
      <point x="587" y="299"/>
      <point x="548" y="370"/>
      <point x="478" y="399" type="curve"/>
      <point x="514" y="433"/>
      <point x="530" y="478"/>
      <point x="530" y="526" type="curve" smooth="yes"/>
      <point x="530" y="646"/>
      <point x="430" y="735"/>
      <point x="295" y="735" type="curve" smooth="yes"/>
      <point x="203" y="735"/>
      <point x="107" y="693"/>
      <point x="78" y="594" type="curve" smooth="yes"/>
      <point x="72" y="572"/>
      <point x="70" y="555"/>
      <point x="70" y="540" type="curve" smooth="yes"/>
    </contour>
    <contour>
      <point x="326" y="111" type="curve" smooth="yes"/>
      <point x="282" y="111"/>
      <point x="229" y="126"/>
      <point x="214" y="167" type="curve" smooth="yes"/>
      <point x="207" y="186"/>
      <point x="207" y="215"/>
      <point x="207" y="225" type="curve" smooth="yes"/>
      <point x="207" y="493" type="line" smooth="yes"/>
      <point x="207" y="506"/>
      <point x="207" y="540"/>
      <point x="220" y="566" type="curve" smooth="yes"/>
      <point x="237" y="599"/>
      <point x="271" y="608"/>
      <point x="298" y="608" type="curve" smooth="yes"/>
      <point x="347" y="608"/>
      <point x="393" y="579"/>
      <point x="393" y="523" type="curve" smooth="yes"/>
      <point x="393" y="476"/>
      <point x="361" y="444"/>
      <point x="300" y="440" type="curve"/>
      <point x="300" y="322" type="line"/>
      <point x="389" y="322"/>
      <point x="451" y="291"/>
      <point x="451" y="218" type="curve" smooth="yes"/>
      <point x="451" y="152"/>
      <point x="400" y="111"/>
    </contour>
  </outline>
</glyph>
<glyph name="zeta" format="2">
  <advance width="533"/>
  <unicode hex="03B6"/>
  <outline>
    <contour>
      <point x="407" y="-120" type="curve"/>
      <point x="525" y="-120" type="line"/>
      <point x="545" y="0"/>
      <point x="509" y="84"/>
      <point x="437" y="112" type="curve" smooth="yes"/>
      <point x="409" y="123"/>
      <point x="372" y="126"/>
      <point x="336" y="127" type="curve" smooth="yes"/>
      <point x="252" y="130"/>
      <point x="184" y="131"/>
      <point x="184" y="216" type="curve" smooth="yes"/>
      <point x="184" y="277"/>
      <point x="219" y="336"/>
      <point x="310" y="419" type="curve" smooth="yes"/>
      <point x="510" y="602"/>
      <point x="490" y="583"/>
      <point x="533" y="622" type="curve"/>
      <point x="533" y="720" type="line"/>
      <point x="70" y="720" type="line"/>
      <point x="70" y="600" type="line"/>
      <point x="322" y="600" type="line"/>
      <point x="274" y="560"/>
      <point x="239" y="531"/>
      <point x="182" y="474" type="curve" smooth="yes"/>
      <point x="73" y="364"/>
      <point x="40" y="293"/>
      <point x="40" y="203" type="curve" smooth="yes"/>
      <point x="40" y="63"/>
      <point x="120" y="8"/>
      <point x="263" y="0" type="curve" smooth="yes"/>
      <point x="333" y="-4"/>
      <point x="407" y="3"/>
    </contour>
  </outline>
</glyph>
<glyph name="lambda" format="2">
  <advance width="568"/>
  <unicode hex="03BB"/>
  <outline>
    <contour>
      <point x="20" y="0" type="line"/>
      <point x="156" y="0" type="line"/>
      <point x="284" y="374" type="line"/>
      <point x="412" y="0" type="line"/>
      <point x="548" y="0" type="line"/>
      <point x="352" y="540" type="line" smooth="yes"/>
      <point x="321" y="627"/>
      <point x="289" y="706"/>
      <point x="200" y="727" type="curve" smooth="yes"/>
      <point x="166" y="735"/>
      <point x="123" y="735"/>
      <point x="112" y="735" type="curve" smooth="yes"/>
      <point x="73" y="735" type="line"/>
      <point x="73" y="616" type="line"/>
      <point x="99" y="616" type="line" smooth="yes"/>
      <point x="165" y="616"/>
      <point x="193" y="596"/>
      <point x="216" y="540" type="curve"/>
    </contour>
  </outline>
</glyph>
<glyph name="pi" format="2">
  <advance width="682"/>
  <unicode hex="03C0"/>
  <outline>
    <contour>
      <point x="120" y="0" type="line"/>
      <point x="256" y="0" type="line"/>
      <point x="256" y="420" type="line"/>
      <point x="426" y="420" type="line"/>
      <point x="426" y="0" type="line"/>
      <point x="562" y="0" type="line"/>
      <point x="562" y="420" type="line"/>
      <point x="642" y="420" type="line"/>
      <point x="642" y="540" type="line"/>
      <point x="40" y="540" type="line"/>
      <point x="40" y="420" type="line"/>
      <point x="120" y="420" type="line"/>
    </contour>
  </outline>
</glyph>
<glyph name="rho" format="2">
  <advance width="649"/>
  <unicode hex="03C1"/>
  <outline>
    <contour>
      <point x="70" y="-240" type="line"/>
      <point x="207" y="-240" type="line"/>
      <point x="207" y="34" type="line"/>
      <point x="243" y="4"/>
      <point x="297" y="-15"/>
      <point x="357" y="-15" type="curve" smooth="yes"/>
      <point x="510" y="-15"/>
      <point x="609" y="107"/>
      <point x="609" y="272" type="curve" smooth="yes"/>
      <point x="609" y="435"/>
      <point x="512" y="555"/>
      <point x="342" y="555" type="curve" smooth="yes"/>
      <point x="197" y="555"/>
      <point x="101" y="468"/>
      <point x="77" y="340" type="curve" smooth="yes"/>
      <point x="70" y="303"/>
      <point x="70" y="266"/>
      <point x="70" y="230" type="curve" smooth="yes"/>
    </contour>
    <contour>
      <point x="339" y="106" type="curve" smooth="yes"/>
      <point x="251" y="106"/>
      <point x="206" y="169"/>
      <point x="206" y="270" type="curve" smooth="yes"/>
      <point x="206" y="368"/>
      <point x="247" y="434"/>
      <point x="339" y="434" type="curve" smooth="yes"/>
      <point x="428" y="434"/>
      <point x="473" y="371"/>
      <point x="473" y="271" type="curve" smooth="yes"/>
      <point x="473" y="173"/>
      <point x="429" y="106"/>
    </contour>
  </outline>
</glyph>
<glyph name="sigma" format="2">
  <advance width="637"/>
  <unicode hex="03C3"/>
  <outline>
    <contour>
      <point x="313" y="-15" type="curve" smooth="yes"/>
      <point x="475" y="-15"/>
      <point x="587" y="107"/>
      <point x="587" y="263" type="curve" smooth="yes"/>
      <point x="587" y="340"/>
      <point x="556" y="410"/>
      <point x="516" y="456" type="curve"/>
      <point x="487" y="420" type="line"/>
      <point x="617" y="420" type="line"/>
      <point x="617" y="540" type="line"/>
      <point x="393" y="540" type="line" smooth="yes"/>
      <point x="325" y="540"/>
      <point x="276" y="540"/>
      <point x="239" y="531" type="curve" smooth="yes"/>
      <point x="118" y="500"/>
      <point x="40" y="395"/>
      <point x="40" y="263" type="curve" smooth="yes"/>
      <point x="40" y="108"/>
      <point x="150" y="-15"/>
    </contour>
    <contour>
      <point x="313" y="112" type="curve" smooth="yes"/>
      <point x="228" y="112"/>
      <point x="184" y="174"/>
      <point x="184" y="263" type="curve" smooth="yes"/>
      <point x="184" y="344"/>
      <point x="224" y="413"/>
      <point x="313" y="413" type="curve" smooth="yes"/>
      <point x="399" y="413"/>
      <point x="443" y="347"/>
      <point x="443" y="263" type="curve" smooth="yes"/>
      <point x="443" y="178"/>
      <point x="400" y="112"/>
    </contour>
  </outline>
</glyph>
<glyph name="upsilon" format="2">
  <advance width="628"/>
  <unicode hex="03C5"/>
  <outline>
    <contour>
      <point x="60" y="247" type="line" smooth="yes"/>
      <point x="60" y="158"/>
      <point x="63" y="-16"/>
      <point x="314" y="-16" type="curve" smooth="yes"/>
      <point x="565" y="-16"/>
      <point x="568" y="158"/>
      <point x="568" y="247" type="curve" smooth="yes"/>
      <point x="568" y="540" type="line"/>
      <point x="430" y="540" type="line"/>
      <point x="430" y="285" type="line" smooth="yes"/>
      <point x="430" y="236"/>
      <point x="430" y="112"/>
      <point x="314" y="112" type="curve" smooth="yes"/>
      <point x="198" y="112"/>
      <point x="198" y="236"/>
      <point x="198" y="285" type="curve" smooth="yes"/>
      <point x="198" y="540" type="line"/>
      <point x="60" y="540" type="line"/>
    </contour>
  </outline>
</glyph>
<glyph name="Nje-cy" format="2">
  <advance width="1118"/>
  <unicode hex="040A"/>
  <outline>
    <contour>
      <point x="70" y="0" type="line"/>
      <point x="206" y="0" type="line"/>
      <point x="206" y="348" type="line"/>
      <point x="590" y="348" type="line"/>
      <point x="590" y="475" type="line"/>
      <point x="206" y="475" type="line"/>
      <point x="206" y="720" type="line"/>
      <point x="70" y="720" type="line"/>
    </contour>
    <component base="Softsign-cy" xOffset="458"/>
  </outline>
</glyph>
<glyph name="Kje-cy" format="2">
  <advance width="665"/>
  <unicode hex="040C"/>
  <outline>
    <contour>
      <point x="70" y="0" type="line"/>
      <point x="206" y="0" type="line"/>
      <point x="206" y="328" type="line"/>
      <point x="493" y="0" type="line"/>
      <point x="665" y="0" type="line"/>
      <point x="345" y="365" type="line"/>
      <point x="646" y="720" type="line"/>
      <point x="480" y="720" type="line"/>
      <point x="206" y="388" type="line"/>
      <point x="206" y="720" type="line"/>
      <point x="70" y="720" type="line"/>
    </contour>
    <component base="acutecomb" xOffset="74"/>
  </outline>
</glyph>
<glyph name="Iigrave-cy" format="2">
  <advance width="729"/>
  <unicode hex="040D"/>
  <outline>
    <contour>
      <point x="70" y="0" type="line"/>
      <point x="208" y="0" type="line"/>
      <point x="521" y="480" type="line"/>
      <point x="521" y="0" type="line"/>
      <point x="659" y="0" type="line"/>
      <point x="659" y="720" type="line"/>
      <point x="521" y="720" type="line"/>
      <point x="208" y="240" type="line"/>
      <point x="208" y="720" type="line"/>
      <point x="70" y="720" type="line"/>
    </contour>
    <component base="gravecomb" xOffset="97"/>
  </outline>
</glyph>
<glyph name="Dzhe-cy" format="2">
  <advance width="780"/>
  <unicode hex="040F"/>
  <outline>
    <contour>
      <point x="322" y="-120" type="line"/>
      <point x="458" y="-120" type="line"/>
      <point x="458" y="0" type="line"/>
      <point x="710" y="0" type="line"/>
      <point x="710" y="720" type="line"/>
      <point x="574" y="720" type="line"/>
      <point x="574" y="127" type="line"/>
      <point x="206" y="127" type="line"/>
      <point x="206" y="720" type="line"/>
      <point x="70" y="720" type="line"/>
      <point x="70" y="0" type="line"/>
      <point x="322" y="0" type="line"/>
    </contour>
  </outline>
</glyph>
<glyph name="De-cy" format="2">
  <advance width="757"/>
  <unicode hex="0414"/>
  <outline>
    <contour>
      <point x="30" y="-120" type="line"/>
      <point x="166" y="-120" type="line"/>
      <point x="166" y="0" type="line"/>
      <point x="581" y="0" type="line"/>
      <point x="581" y="-120" type="line"/>
      <point x="717" y="-120" type="line"/>
      <point x="717" y="127" type="line"/>
      <point x="662" y="127" type="line"/>
      <point x="662" y="720" type="line"/>
      <point x="184" y="721" type="line"/>
      <point x="174" y="575"/>
      <point x="168" y="466"/>
      <point x="158" y="346" type="curve" smooth="yes"/>
      <point x="147" y="220"/>
      <point x="117" y="127"/>
      <point x="30" y="127" type="curve"/>
    </contour>
    <contour>
      <point x="233" y="127" type="line"/>
      <point x="274" y="181"/>
      <point x="279" y="219"/>
      <point x="289" y="324" type="curve" smooth="yes"/>
      <point x="299" y="429"/>
      <point x="301" y="495"/>
      <point x="308" y="594" type="curve"/>
      <point x="526" y="593" type="line"/>
      <point x="526" y="127" type="line"/>
    </contour>
  </outline>
</glyph>
<glyph name="El-cy" format="2">
  <advance width="730"/>
  <unicode hex="041B"/>
  <outline>
    <contour>
      <point x="20" y="0" type="line"/>
      <point x="177" y="-31"/>
      <point x="219" y="51"/>
      <point x="247" y="194" type="curve" smooth="yes"/>
      <point x="277" y="341"/>
      <point x="289" y="518"/>
      <point x="294" y="593" type="curve"/>
      <point x="524" y="593" type="line"/>
      <point x="524" y="0" type="line"/>
      <point x="660" y="0" type="line"/>
      <point x="660" y="720" type="line"/>
      <point x="169" y="720" type="line"/>
      <point x="165" y="633"/>
      <point x="154" y="410"/>
      <point x="122" y="244" type="curve" smooth="yes"/>
      <point x="102" y="138"/>
      <point x="81" y="109"/>
      <point x="20" y="113" type="curve"/>
    </contour>
  </outline>
</glyph>
<glyph name="Ef-cy" format="2">
  <advance width="748"/>
  <unicode hex="0424"/>
  <outline>
    <contour>
      <point x="306" y="0" type="line"/>
      <point x="441" y="0" type="line"/>
      <point x="441" y="105" type="line"/>
      <point x="589" y="80"/>
      <point x="718" y="180"/>
      <point x="718" y="380" type="curve" smooth="yes"/>
      <point x="718" y="580"/>
      <point x="589" y="685"/>
      <point x="441" y="660" type="curve"/>
      <point x="441" y="720" type="line"/>
      <point x="306" y="720" type="line"/>
      <point x="306" y="660" type="line"/>
      <point x="158" y="685"/>
      <point x="30" y="580"/>
      <point x="30" y="380" type="curve" smooth="yes"/>
      <point x="30" y="180"/>
      <point x="158" y="80"/>
      <point x="306" y="105" type="curve"/>
    </contour>
    <contour>
      <point x="306" y="229" type="line"/>
      <point x="192" y="211"/>
      <point x="168" y="300"/>
      <point x="168" y="380" type="curve" smooth="yes"/>
      <point x="168" y="460"/>
      <point x="192" y="556"/>
      <point x="306" y="538" type="curve"/>
    </contour>
    <contour>
      <point x="441" y="229" type="curve"/>
      <point x="441" y="538" type="line"/>
      <point x="554" y="556"/>
      <point x="580" y="451"/>
      <point x="580" y="376" type="curve" smooth="yes"/>
      <point x="580" y="301"/>
      <point x="554" y="211"/>
    </contour>
  </outline>
</glyph>
<glyph name="Che-cy" format="2">
  <advance width="686"/>
  <unicode hex="0427"/>
  <outline>
    <contour>
      <point x="479" y="0" type="line"/>
      <point x="616" y="0" type="line"/>
      <point x="616" y="720" type="line"/>
      <point x="479" y="720" type="line"/>
      <point x="479" y="359" type="line"/>
      <point x="494" y="420" type="line"/>
      <point x="473" y="391"/>
      <point x="420" y="360"/>
      <point x="346" y="360" type="curve" smooth="yes"/>
      <point x="208" y="360"/>
      <point x="208" y="467"/>
      <point x="208" y="554" type="curve" smooth="yes"/>
      <point x="208" y="720" type="line"/>
      <point x="70" y="720" type="line"/>
      <point x="70" y="513" type="line" smooth="yes"/>
      <point x="70" y="347"/>
      <point x="134" y="232"/>
      <point x="314" y="232" type="curve" smooth="yes"/>
      <point x="387" y="232"/>
      <point x="461" y="250"/>
      <point x="498" y="283" type="curve"/>
      <point x="479" y="314" type="line"/>
    </contour>
  </outline>
</glyph>
<glyph name="Softsign-cy" format="2">
  <advance width="660"/>
  <unicode hex="042C"/>
  <outline>
    <contour>
      <point x="70" y="0" type="line"/>
      <point x="374" y="0" type="line" smooth="yes"/>
      <point x="388" y="0"/>
      <point x="415" y="1"/>
      <point x="434" y="4" type="curve" smooth="yes"/>
      <point x="563" y="24"/>
      <point x="620" y="117"/>
      <point x="620" y="238" type="curve" smooth="yes"/>
      <point x="620" y="359"/>
      <point x="562" y="452"/>
      <point x="434" y="472" type="curve" smooth="yes"/>
      <point x="415" y="475"/>
      <point x="387" y="476"/>
      <point x="374" y="476" type="curve" smooth="yes"/>
      <point x="206" y="476" type="line"/>
      <point x="206" y="720" type="line"/>
      <point x="70" y="720" type="line"/>
    </contour>
    <contour>
      <point x="206" y="127" type="line"/>
      <point x="206" y="349" type="line"/>
      <point x="368" y="349" type="line" smooth="yes"/>
      <point x="382" y="349"/>
      <point x="400" y="348"/>
      <point x="414" y="344" type="curve" smooth="yes"/>
      <point x="469" y="329"/>
      <point x="483" y="277"/>
      <point x="483" y="238" type="curve" smooth="yes"/>
      <point x="483" y="199"/>
      <point x="469" y="147"/>
      <point x="414" y="132" type="curve" smooth="yes"/>
      <point x="400" y="128"/>
      <point x="382" y="127"/>
      <point x="368" y="127" type="curve" smooth="yes"/>
    </contour>
  </outline>
</glyph>
<glyph name="Iu-cy" format="2">
  <advance width="956"/>
  <unicode hex="042E"/>
  <outline>
    <contour>
      <point x="70" y="0" type="line"/>
      <point x="206" y="0" type="line"/>
      <point x="206" y="292" type="line"/>
      <point x="326" y="292" type="line"/>
      <point x="326" y="428" type="line"/>
      <point x="206" y="428" type="line"/>
      <point x="206" y="720" type="line"/>
      <point x="70" y="720" type="line"/>
    </contour>
    <component base="Oval-condensed" xOffset="280"/>
  </outline>
</glyph>
<glyph name="ve-cy" format="2">
  <advance width="568"/>
  <unicode hex="0432"/>
  <outline>
    <contour>
      <point x="70" y="0" type="line"/>
      <point x="340" y="0" type="line" smooth="yes"/>
      <point x="375" y="0"/>
      <point x="409" y="3"/>
      <point x="433" y="10" type="curve" smooth="yes"/>
      <point x="503" y="30"/>
      <point x="538" y="83"/>
      <point x="538" y="155" type="curve" smooth="yes"/>
      <point x="538" y="222"/>
      <point x="507" y="253"/>
      <point x="471" y="269" type="curve" smooth="yes"/>
      <point x="460" y="274"/>
      <point x="446" y="278"/>
      <point x="433" y="280" type="curve"/>
      <point x="445" y="283"/>
      <point x="457" y="289"/>
      <point x="469" y="298" type="curve" smooth="yes"/>
      <point x="494" y="317"/>
      <point x="511" y="345"/>
      <point x="511" y="393" type="curve" smooth="yes"/>
      <point x="511" y="474"/>
      <point x="462" y="514"/>
      <point x="413" y="529" type="curve" smooth="yes"/>
      <point x="393" y="535"/>
      <point x="363" y="540"/>
      <point x="323" y="540" type="curve" smooth="yes"/>
      <point x="70" y="540" type="line"/>
    </contour>
    <contour>
      <point x="208" y="103" type="line"/>
      <point x="208" y="217" type="line"/>
      <point x="330" y="217" type="line" smooth="yes"/>
      <point x="339" y="217"/>
      <point x="356" y="217"/>
      <point x="369" y="211" type="curve" smooth="yes"/>
      <point x="384" y="204"/>
      <point x="399" y="189"/>
      <point x="399" y="161" type="curve" smooth="yes"/>
      <point x="399" y="141"/>
      <point x="391" y="119"/>
      <point x="372" y="111" type="curve" smooth="yes"/>
      <point x="360" y="106"/>
      <point x="344" y="103"/>
      <point x="330" y="103" type="curve" smooth="yes"/>
    </contour>
    <contour>
      <point x="208" y="322" type="line"/>
      <point x="208" y="435" type="line"/>
      <point x="291" y="435" type="line" smooth="yes"/>
      <point x="297" y="435"/>
      <point x="325" y="435"/>
      <point x="340" y="430" type="curve" smooth="yes"/>
      <point x="362" y="423"/>
      <point x="371" y="402"/>
      <point x="371" y="379" type="curve" smooth="yes"/>
      <point x="371" y="357"/>
      <point x="362" y="338"/>
      <point x="345" y="330" type="curve" smooth="yes"/>
      <point x="332" y="324"/>
      <point x="312" y="322"/>
      <point x="291" y="322" type="curve" smooth="yes"/>
    </contour>
  </outline>
</glyph>
<glyph name="ze-cy" format="2">
  <advance width="525"/>
  <unicode hex="0437"/>
  <outline>
    <contour>
      <point x="261" y="-15" type="curve" smooth="yes"/>
      <point x="381" y="-15"/>
      <point x="485" y="46"/>
      <point x="485" y="162" type="curve" smooth="yes"/>
      <point x="485" y="225"/>
      <point x="454" y="274"/>
      <point x="404" y="300" type="curve"/>
      <point x="405" y="257" type="line"/>
      <point x="450" y="301"/>
      <point x="467" y="345"/>
      <point x="467" y="392" type="curve" smooth="yes"/>
      <point x="467" y="501"/>
      <point x="369" y="555"/>
      <point x="265" y="555" type="curve" smooth="yes"/>
      <point x="183" y="555"/>
      <point x="106" y="521"/>
      <point x="45" y="470" type="curve"/>
      <point x="120" y="377" type="line"/>
      <point x="160" y="405"/>
      <point x="211" y="429"/>
      <point x="259" y="429" type="curve" smooth="yes"/>
      <point x="295" y="429"/>
      <point x="327" y="416"/>
      <point x="327" y="379" type="curve" smooth="yes"/>
      <point x="327" y="334"/>
      <point x="282" y="331"/>
      <point x="226" y="331" type="curve" smooth="yes"/>
      <point x="194" y="331" type="line"/>
      <point x="194" y="225" type="line"/>
      <point x="226" y="225" type="line" smooth="yes"/>
      <point x="282" y="225"/>
      <point x="346" y="232"/>
      <point x="346" y="176" type="curve" smooth="yes"/>
      <point x="346" y="137"/>
      <point x="314" y="112"/>
      <point x="260" y="112" type="curve" smooth="yes"/>
      <point x="208" y="112"/>
      <point x="165" y="135"/>
      <point x="127" y="174" type="curve"/>
      <point x="20" y="102" type="line"/>
      <point x="69" y="29"/>
      <point x="160" y="-15"/>
    </contour>
  </outline>
</glyph>
<glyph name="ka-cy" format="2">
  <advance width="553"/>
  <unicode hex="043A"/>
  <outline>
    <contour>
      <point x="70" y="0" type="line"/>
      <point x="209" y="0" type="line"/>
      <point x="209" y="260" type="line"/>
      <point x="396" y="0" type="line"/>
      <point x="573" y="0" type="line"/>
      <point x="365" y="270" type="line"/>
      <point x="560" y="540" type="line"/>
      <point x="392" y="540" type="line"/>
      <point x="209" y="280" type="line"/>
      <point x="209" y="540" type="line"/>
      <point x="71" y="540" type="line"/>
    </contour>
  </outline>
</glyph>
<glyph name="em-cy" format="2">
  <advance width="736"/>
  <unicode hex="043C"/>
  <outline>
    <contour>
      <point x="70" y="0" type="line"/>
      <point x="200" y="0" type="line"/>
      <point x="200" y="269" type="line"/>
      <point x="344" y="0" type="line"/>
      <point x="392" y="0" type="line"/>
      <point x="536" y="269" type="line"/>
      <point x="536" y="0" type="line"/>
      <point x="666" y="0" type="line"/>
      <point x="666" y="540" type="line"/>
      <point x="556" y="540" type="line"/>
      <point x="368" y="190" type="line"/>
      <point x="180" y="540" type="line"/>
      <point x="70" y="540" type="line"/>
    </contour>
  </outline>
</glyph>
<glyph name="pe-cy" format="2">
  <advance width="622"/>
  <unicode hex="043F"/>
  <outline>
    <contour>
      <point x="70" y="0" type="line"/>
      <point x="206" y="0" type="line"/>
      <point x="206" y="413" type="line"/>
      <point x="416" y="413" type="line"/>
      <point x="416" y="0" type="line"/>
      <point x="552" y="0" type="line"/>
      <point x="552" y="540" type="line"/>
      <point x="70" y="540" type="line"/>
    </contour>
  </outline>
</glyph>
<glyph name="ef-cy" format="2">
  <advance width="764"/>
  <unicode hex="0444"/>
  <outline>
    <contour>
      <point x="322" y="-225" type="line"/>
      <point x="442" y="-225" type="line"/>
      <point x="442" y="-9" type="line"/>
      <point x="600" y="-34"/>
      <point x="724" y="70"/>
      <point x="724" y="270" type="curve" smooth="yes"/>
      <point x="724" y="470"/>
      <point x="600" y="574"/>
      <point x="442" y="549" type="curve"/>
      <point x="442" y="710" type="line"/>
      <point x="322" y="710" type="line"/>
      <point x="322" y="549" type="line"/>
      <point x="164" y="574"/>
      <point x="40" y="470"/>
      <point x="40" y="270" type="curve" smooth="yes"/>
      <point x="40" y="70"/>
      <point x="164" y="-34"/>
      <point x="322" y="-9" type="curve"/>
    </contour>
    <contour>
      <point x="322" y="112" type="line"/>
      <point x="219" y="95"/>
      <point x="178" y="167"/>
      <point x="178" y="270" type="curve" smooth="yes"/>
      <point x="178" y="373"/>
      <point x="214" y="445"/>
      <point x="322" y="427" type="curve"/>
    </contour>
    <contour>
      <point x="442" y="112" type="curve"/>
      <point x="442" y="427" type="line"/>
      <point x="550" y="445"/>
      <point x="586" y="376"/>
      <point x="586" y="270" type="curve" smooth="yes"/>
      <point x="586" y="164"/>
      <point x="545" y="95"/>
    </contour>
  </outline>
</glyph>
<glyph name="sha-cy" format="2">
  <advance width="802"/>
  <unicode hex="0448"/>
  <outline>
    <contour>
      <point x="70" y="0" type="line"/>
      <point x="732" y="0" type="line"/>
      <point x="732" y="540" type="line"/>
      <point x="602" y="540" type="line"/>
      <point x="602" y="120" type="line"/>
      <point x="466" y="120" type="line"/>
      <point x="466" y="540" type="line"/>
      <point x="336" y="540" type="line"/>
      <point x="336" y="120" type="line"/>
      <point x="200" y="120" type="line"/>
      <point x="200" y="540" type="line"/>
      <point x="70" y="540" type="line"/>
    </contour>
  </outline>
</glyph>
<glyph name="shcha-cy" format="2">
  <advance width="773"/>
  <unicode hex="0449"/>
  <outline>
    <contour>
      <point x="627" y="-120" type="line"/>
      <point x="763" y="-120" type="line"/>
      <point x="763" y="120" type="line"/>
      <point x="732" y="120" type="line"/>
      <point x="732" y="540" type="line"/>
      <point x="602" y="540" type="line"/>
      <point x="602" y="120" type="line"/>
      <point x="466" y="120" type="line"/>
      <point x="466" y="540" type="line"/>
      <point x="336" y="540" type="line"/>
      <point x="336" y="120" type="line"/>
      <point x="200" y="120" type="line"/>
      <point x="200" y="540" type="line"/>
      <point x="70" y="540" type="line"/>
      <point x="70" y="0" type="line"/>
      <point x="627" y="0" type="line"/>
    </contour>
  </outline>
</glyph>
<glyph name="ereversed-cy" format="2">
  <advance width="584"/>
  <unicode hex="044D"/>
  <outline>
    <contour>
      <point x="276" y="-15" type="curve" smooth="yes"/>
      <point x="444" y="-15"/>
      <point x="544" y="108"/>
      <point x="544" y="269" type="curve" smooth="yes"/>
      <point x="544" y="434"/>
      <point x="439" y="555"/>
      <point x="274" y="555" type="curve" smooth="yes"/>
      <point x="147" y="555"/>
      <point x="55" y="486"/>
      <point x="31" y="375" type="curve"/>
      <point x="167" y="339" type="line"/>
      <point x="184" y="397"/>
      <point x="226" y="428"/>
      <point x="280" y="428" type="curve" smooth="yes"/>
      <point x="345" y="428"/>
      <point x="383" y="382"/>
      <point x="395" y="323" type="curve"/>
      <point x="236" y="323" type="line"/>
      <point x="236" y="218" type="line"/>
      <point x="395" y="218" type="line"/>
      <point x="382" y="153"/>
      <point x="342" y="112"/>
      <point x="276" y="112" type="curve" smooth="yes"/>
      <point x="215" y="112"/>
      <point x="186" y="141"/>
      <point x="170" y="193" type="curve"/>
      <point x="31" y="164" type="line"/>
      <point x="62" y="49"/>
      <point x="151" y="-15"/>
    </contour>
  </outline>
</glyph>
<glyph name="iu-cy" format="2">
  <advance width="872"/>
  <unicode hex="044E"/>
  <outline>
    <contour>
      <point x="558" y="-15" type="curve" smooth="yes"/>
      <point x="719" y="-15"/>
      <point x="832" y="102"/>
      <point x="832" y="271" type="curve" smooth="yes"/>
      <point x="832" y="435"/>
      <point x="721" y="555"/>
      <point x="561" y="555" type="curve" smooth="yes"/>
      <point x="435" y="555"/>
      <point x="335" y="479"/>
      <point x="311" y="338" type="curve"/>
      <point x="206" y="338" type="line"/>
      <point x="206" y="540" type="line"/>
      <point x="70" y="540" type="line"/>
      <point x="70" y="0" type="line"/>
      <point x="206" y="0" type="line"/>
      <point x="206" y="202" type="line"/>
      <point x="311" y="202" type="line"/>
      <point x="335" y="63"/>
      <point x="434" y="-15"/>
    </contour>
    <contour>
      <point x="557" y="112" type="curve" smooth="yes"/>
      <point x="473" y="112"/>
      <point x="429" y="173"/>
      <point x="429" y="271" type="curve" smooth="yes"/>
      <point x="429" y="364"/>
      <point x="469" y="428"/>
      <point x="557" y="428" type="curve" smooth="yes"/>
      <point x="644" y="428"/>
      <point x="688" y="367"/>
      <point x="688" y="270" type="curve" smooth="yes"/>
      <point x="688" y="177"/>
      <point x="645" y="112"/>
    </contour>
  </outline>
</glyph>
<glyph name="lje-cy" format="2">
  <advance width="862"/>
  <unicode hex="0459"/>
  <outline>
    <contour>
      <point x="20" y="0" type="line"/>
      <point x="150" y="-30"/>
      <point x="202" y="15"/>
      <point x="226" y="142" type="curve" smooth="yes"/>
      <point x="239" y="209"/>
      <point x="250" y="343"/>
      <point x="256" y="413" type="curve"/>
      <point x="389" y="413" type="line"/>
      <point x="389" y="0" type="line"/>
      <point x="574" y="0" type="line" smooth="yes"/>
      <point x="599" y="0"/>
      <point x="641" y="0"/>
      <point x="677" y="7" type="curve" smooth="yes"/>
      <point x="765" y="24"/>
      <point x="822" y="86"/>
      <point x="822" y="185" type="curve" smooth="yes"/>
      <point x="822" y="285"/>
      <point x="763" y="345"/>
      <point x="676" y="362" type="curve" smooth="yes"/>
      <point x="645" y="368"/>
      <point x="614" y="368"/>
      <point x="574" y="368" type="curve" smooth="yes"/>
      <point x="525" y="368" type="line"/>
      <point x="525" y="540" type="line"/>
      <point x="137" y="540" type="line"/>
      <point x="130" y="413"/>
      <point x="120" y="276"/>
      <point x="104" y="190" type="curve" smooth="yes"/>
      <point x="92" y="125"/>
      <point x="79" y="102"/>
      <point x="20" y="113" type="curve"/>
    </contour>
    <contour>
      <point x="525" y="105" type="line"/>
      <point x="525" y="263" type="line"/>
      <point x="589" y="263" type="line" smooth="yes"/>
      <point x="600" y="263"/>
      <point x="615" y="262"/>
      <point x="629" y="258" type="curve" smooth="yes"/>
      <point x="657" y="250"/>
      <point x="684" y="222"/>
      <point x="684" y="184" type="curve" smooth="yes"/>
      <point x="684" y="148"/>
      <point x="659" y="118"/>
      <point x="631" y="110" type="curve" smooth="yes"/>
      <point x="616" y="106"/>
      <point x="601" y="105"/>
      <point x="589" y="105" type="curve" smooth="yes"/>
    </contour>
  </outline>
</glyph>
<glyph name="obarred-cy" format="2">
  <advance width="627"/>
  <unicode hex="04E9"/>
  <outline>
    <contour>
      <point x="101" y="218" type="line"/>
      <point x="527" y="218" type="line"/>
      <point x="527" y="323" type="line"/>
      <point x="101" y="323" type="line"/>
    </contour>
    <component base="o"/>
  </outline>
</glyph>
<glyph name="fraction" format="2">
  <advance width="273"/>
  <unicode hex="2044"/>
  <outline>
    <contour>
      <point x="-66" y="0" type="line"/>
      <point x="416" y="669" type="line"/>
      <point x="339" y="727" type="line"/>
      <point x="-143" y="57" type="line"/>
    </contour>
  </outline>
</glyph>
<glyph name="zerosuperior" format="2">
  <advance width="476"/>
  <unicode hex="2070"/>
  <outline>
    <contour>
      <point x="238" y="259" type="curve" smooth="yes"/>
      <point x="345" y="259"/>
      <point x="406" y="326"/>
      <point x="406" y="438" type="curve" smooth="yes"/>
      <point x="406" y="550" type="line" smooth="yes"/>
      <point x="406" y="663"/>
      <point x="340" y="729"/>
      <point x="238" y="729" type="curve" smooth="yes"/>
      <point x="135" y="729"/>
      <point x="70" y="660"/>
      <point x="70" y="550" type="curve" smooth="yes"/>
      <point x="70" y="438" type="line" smooth="yes"/>
      <point x="70" y="325"/>
      <point x="135" y="259"/>
    </contour>
    <contour>
      <point x="238" y="339" type="curve" smooth="yes"/>
      <point x="183" y="339"/>
      <point x="158" y="378"/>
      <point x="158" y="438" type="curve" smooth="yes"/>
      <point x="158" y="550" type="line" smooth="yes"/>
      <point x="158" y="613"/>
      <point x="187" y="649"/>
      <point x="238" y="649" type="curve" smooth="yes"/>
      <point x="292" y="649"/>
      <point x="319" y="610"/>
      <point x="319" y="550" type="curve" smooth="yes"/>
      <point x="319" y="438" type="line" smooth="yes"/>
      <point x="319" y="374"/>
      <point x="290" y="339"/>
    </contour>
  </outline>
</glyph>
<glyph name="foursuperior" format="2">
  <advance width="422"/>
  <unicode hex="2074"/>
  <outline>
    <contour>
      <point x="246" y="270" type="line"/>
      <point x="332" y="270" type="line"/>
      <point x="332" y="340" type="line"/>
      <point x="372" y="340" type="line"/>
      <point x="372" y="420" type="line"/>
      <point x="332" y="420" type="line"/>
      <point x="332" y="532" type="line"/>
      <point x="246" y="532" type="line"/>
      <point x="246" y="420" type="line"/>
      <point x="148" y="420" type="line"/>
      <point x="290" y="720" type="line"/>
      <point x="192" y="720" type="line"/>
      <point x="50" y="420" type="line"/>
      <point x="50" y="340" type="line"/>
      <point x="246" y="340" type="line"/>
    </contour>
  </outline>
</glyph>
<glyph name="fivesuperior" format="2">
  <advance width="406"/>
  <unicode hex="2075"/>
  <outline>
    <contour>
      <point x="196" y="260" type="curve" smooth="yes"/>
      <point x="282" y="260"/>
      <point x="356" y="326"/>
      <point x="356" y="411" type="curve" smooth="yes"/>
      <point x="356" y="497"/>
      <point x="297" y="558"/>
      <point x="212" y="558" type="curve" smooth="yes"/>
      <point x="187" y="558"/>
      <point x="156" y="550"/>
      <point x="133" y="532" type="curve"/>
      <point x="148" y="514" type="line"/>
      <point x="157" y="669" type="line"/>
      <point x="127" y="641" type="line"/>
      <point x="326" y="641" type="line"/>
      <point x="326" y="720" type="line"/>
      <point x="80" y="720" type="line"/>
      <point x="66" y="480" type="line"/>
      <point x="138" y="458" type="line"/>
      <point x="148" y="468"/>
      <point x="168" y="482"/>
      <point x="200" y="482" type="curve" smooth="yes"/>
      <point x="238" y="482"/>
      <point x="270" y="450"/>
      <point x="270" y="411" type="curve" smooth="yes"/>
      <point x="270" y="373"/>
      <point x="238" y="341"/>
      <point x="200" y="341" type="curve" smooth="yes"/>
      <point x="170" y="341"/>
      <point x="140" y="361"/>
      <point x="132" y="393" type="curve"/>
      <point x="50" y="371" type="line"/>
      <point x="69" y="305"/>
      <point x="128" y="260"/>
    </contour>
  </outline>
</glyph>
<glyph name="sixsuperior" format="2">
  <advance width="437"/>
  <unicode hex="2076"/>
  <outline>
    <contour>
      <point x="229" y="257" type="curve" smooth="yes"/>
      <point x="315" y="257"/>
      <point x="387" y="323"/>
      <point x="387" y="409" type="curve" smooth="yes"/>
      <point x="387" y="495"/>
      <point x="328" y="557"/>
      <point x="242" y="557" type="curve" smooth="yes"/>
      <point x="205" y="557"/>
      <point x="169" y="543"/>
      <point x="143" y="516" type="curve"/>
      <point x="158" y="500" type="line"/>
      <point x="158" y="568" type="line" smooth="yes"/>
      <point x="158" y="610"/>
      <point x="189" y="649"/>
      <point x="239" y="649" type="curve" smooth="yes"/>
      <point x="260" y="649"/>
      <point x="280" y="640"/>
      <point x="296" y="625" type="curve"/>
      <point x="357" y="686" type="line"/>
      <point x="323" y="717"/>
      <point x="283" y="729"/>
      <point x="239" y="729" type="curve" smooth="yes"/>
      <point x="136" y="729"/>
      <point x="70" y="663"/>
      <point x="70" y="555" type="curve" smooth="yes"/>
      <point x="70" y="423" type="line" smooth="yes"/>
      <point x="70" y="324"/>
      <point x="138" y="257"/>
    </contour>
    <contour>
      <point x="229" y="338" type="curve" smooth="yes"/>
      <point x="189" y="338"/>
      <point x="158" y="371"/>
      <point x="158" y="409" type="curve" smooth="yes"/>
      <point x="158" y="448"/>
      <point x="190" y="480"/>
      <point x="229" y="480" type="curve" smooth="yes"/>
      <point x="268" y="480"/>
      <point x="300" y="448"/>
      <point x="300" y="409" type="curve" smooth="yes"/>
      <point x="300" y="369"/>
      <point x="268" y="338"/>
    </contour>
  </outline>
</glyph>
<glyph name="eightsuperior" format="2">
  <advance width="437"/>
  <unicode hex="2078"/>
  <outline>
    <contour>
      <point x="218" y="257" type="curve" smooth="yes"/>
      <point x="310" y="257"/>
      <point x="377" y="318"/>
      <point x="377" y="402" type="curve" smooth="yes"/>
      <point x="377" y="450"/>
      <point x="354" y="496"/>
      <point x="314" y="521" type="curve"/>
      <point x="314" y="495" type="line"/>
      <point x="348" y="526"/>
      <point x="364" y="557"/>
      <point x="364" y="599" type="curve" smooth="yes"/>
      <point x="364" y="677"/>
      <point x="304" y="729"/>
      <point x="218" y="729" type="curve" smooth="yes"/>
      <point x="132" y="729"/>
      <point x="72" y="677"/>
      <point x="72" y="599" type="curve" smooth="yes"/>
      <point x="72" y="557"/>
      <point x="90" y="525"/>
      <point x="121" y="496" type="curve"/>
      <point x="123" y="522" type="line"/>
      <point x="82" y="495"/>
      <point x="60" y="450"/>
      <point x="60" y="402" type="curve" smooth="yes"/>
      <point x="60" y="318"/>
      <point x="126" y="257"/>
    </contour>
    <contour>
      <point x="218" y="338" type="curve" smooth="yes"/>
      <point x="178" y="338"/>
      <point x="151" y="360"/>
      <point x="151" y="402" type="curve" smooth="yes"/>
      <point x="151" y="445"/>
      <point x="178" y="468"/>
      <point x="218" y="468" type="curve" smooth="yes"/>
      <point x="258" y="468"/>
      <point x="286" y="445"/>
      <point x="286" y="402" type="curve" smooth="yes"/>
      <point x="286" y="360"/>
      <point x="258" y="338"/>
    </contour>
    <contour>
      <point x="218" y="549" type="curve" smooth="yes"/>
      <point x="185" y="549"/>
      <point x="163" y="565"/>
      <point x="163" y="599" type="curve" smooth="yes"/>
      <point x="163" y="633"/>
      <point x="185" y="649"/>
      <point x="218" y="649" type="curve" smooth="yes"/>
      <point x="251" y="649"/>
      <point x="273" y="633"/>
      <point x="273" y="599" type="curve" smooth="yes"/>
      <point x="273" y="565"/>
      <point x="251" y="549"/>
    </contour>
  </outline>
</glyph>
<glyph name="hryvnia" format="2">
  <advance width="607"/>
  <unicode hex="20B4"/>
  <outline>
    <contour>
      <point x="298" y="-15" type="curve" smooth="yes"/>
      <point x="382" y="-15"/>
      <point x="462" y="22"/>
      <point x="508" y="97" type="curve" smooth="yes"/>
      <point x="526" y="126"/>
      <point x="539" y="163"/>
      <point x="541" y="194" type="curve"/>
      <point x="401" y="194" type="line"/>
      <point x="398" y="185"/>
      <point x="395" y="175"/>
      <point x="390" y="168" type="curve" smooth="yes"/>
      <point x="366" y="132"/>
      <point x="338" y="114"/>
      <point x="298" y="114" type="curve" smooth="yes"/>
      <point x="279" y="114"/>
      <point x="254" y="118"/>
      <point x="230" y="134" type="curve" smooth="yes"/>
      <point x="208" y="149"/>
      <point x="199" y="167"/>
      <point x="199" y="194" type="curve" smooth="yes"/>
      <point x="199" y="221"/>
      <point x="208" y="234"/>
      <point x="235" y="253" type="curve" smooth="yes"/>
      <point x="291" y="292"/>
      <point x="341" y="290"/>
      <point x="420" y="340" type="curve"/>
      <point x="122" y="340" type="line"/>
      <point x="109" y="327"/>
      <point x="109" y="327"/>
      <point x="108" y="326" type="curve" smooth="yes"/>
      <point x="71" y="287"/>
      <point x="55" y="242"/>
      <point x="55" y="195" type="curve" smooth="yes"/>
      <point x="55" y="122"/>
      <point x="94" y="50"/>
      <point x="162" y="15" type="curve" smooth="yes"/>
      <point x="197" y="-3"/>
      <point x="250" y="-15"/>
    </contour>
    <contour>
      <point x="18" y="235" type="line"/>
      <point x="578" y="235" type="line"/>
      <point x="578" y="340" type="line"/>
      <point x="18" y="340" type="line"/>
    </contour>
    <contour>
      <point x="19" y="381" type="line"/>
      <point x="578" y="381" type="line"/>
      <point x="578" y="486" type="line"/>
      <point x="18" y="486" type="line"/>
    </contour>
    <contour>
      <point x="184" y="381" type="curve"/>
      <point x="473" y="381" type="line"/>
      <point x="482" y="390"/>
      <point x="491" y="401"/>
      <point x="499" y="413" type="curve" smooth="yes"/>
      <point x="521" y="446"/>
      <point x="533" y="487"/>
      <point x="533" y="524" type="curve" smooth="yes"/>
      <point x="533" y="579"/>
      <point x="507" y="639"/>
      <point x="467" y="676" type="curve" smooth="yes"/>
      <point x="427" y="713"/>
      <point x="366" y="735"/>
      <point x="303" y="735" type="curve" smooth="yes"/>
      <point x="225" y="735"/>
      <point x="153" y="701"/>
      <point x="110" y="639" type="curve" smooth="yes"/>
      <point x="89" y="609"/>
      <point x="73" y="568"/>
      <point x="69" y="526" type="curve"/>
      <point x="213" y="526" type="line"/>
      <point x="215" y="537"/>
      <point x="218" y="549"/>
      <point x="226" y="562" type="curve" smooth="yes"/>
      <point x="239" y="583"/>
      <point x="265" y="606"/>
      <point x="303" y="606" type="curve" smooth="yes"/>
      <point x="329" y="606"/>
      <point x="353" y="595"/>
      <point x="370" y="576" type="curve" smooth="yes"/>
      <point x="383" y="562"/>
      <point x="389" y="547"/>
      <point x="389" y="526" type="curve" smooth="yes"/>
      <point x="389" y="517"/>
      <point x="388" y="501"/>
      <point x="381" y="489" type="curve" smooth="yes"/>
      <point x="356" y="446"/>
      <point x="240" y="410"/>
    </contour>
  </outline>
</glyph>
<glyph name="trademark" format="2">
  <advance width="929"/>
  <unicode hex="2122"/>
  <outline>
    <contour>
      <point x="469" y="345" type="line"/>
      <point x="559" y="345" type="line"/>
      <point x="559" y="546" type="line"/>
      <point x="644" y="414" type="line"/>
      <point x="694" y="414" type="line"/>
      <point x="779" y="546" type="line"/>
      <point x="779" y="345" type="line"/>
      <point x="869" y="345" type="line"/>
      <point x="869" y="720" type="line"/>
      <point x="794" y="720" type="line"/>
      <point x="669" y="531" type="line"/>
      <point x="544" y="720" type="line"/>
      <point x="469" y="720" type="line"/>
    </contour>
    <contour>
      <point x="183" y="345" type="line"/>
      <point x="277" y="345" type="line"/>
      <point x="277" y="636" type="line"/>
      <point x="400" y="636" type="line"/>
      <point x="400" y="720" type="line"/>
      <point x="60" y="720" type="line"/>
      <point x="60" y="636" type="line"/>
      <point x="183" y="636" type="line"/>
    </contour>
  </outline>
</glyph>
<glyph name="carriagereturn" format="2">
  <advance width="824"/>
  <unicode hex="21B5"/>
  <outline>
    <contour>
      <point x="382" y="73" type="line"/>
      <point x="445" y="137" type="line"/>
      <point x="320" y="262" type="line"/>
      <point x="764" y="262" type="line"/>
      <point x="764" y="720" type="line"/>
      <point x="659" y="720" type="line"/>
      <point x="659" y="368" type="line"/>
      <point x="320" y="368" type="line"/>
      <point x="445" y="493" type="line"/>
      <point x="382" y="557" type="line"/>
      <point x="140" y="315" type="line"/>
    </contour>
  </outline>
</glyph>
<glyph name="summation" format="2">
  <advance width="569"/>
  <unicode hex="2211"/>
  <outline>
    <contour>
      <point x="60" y="-70" type="line"/>
      <point x="509" y="-70" type="line"/>
      <point x="509" y="52" type="line"/>
      <point x="196" y="52" type="line"/>
      <point x="206" y="29" type="line"/>
      <point x="509" y="266" type="line"/>
      <point x="509" y="314" type="line"/>
      <point x="206" y="551" type="line"/>
      <point x="196" y="528" type="line"/>
      <point x="509" y="528" type="line"/>
      <point x="509" y="650" type="line"/>
      <point x="60" y="650" type="line"/>
      <point x="60" y="528" type="line"/>
      <point x="393" y="262" type="line"/>
      <point x="393" y="318" type="line"/>
      <point x="60" y="52" type="line"/>
    </contour>
  </outline>
</glyph>
<glyph name="lozenge" format="2">
  <advance width="557"/>
  <unicode hex="25CA"/>
  <outline>
    <contour>
      <point x="195" y="-10" type="line"/>
      <point x="362" y="-10" type="line"/>
      <point x="507" y="337" type="line"/>
      <point x="362" y="684" type="line"/>
      <point x="195" y="684" type="line"/>
      <point x="50" y="337" type="line"/>
    </contour>
    <contour>
      <point x="278" y="109" type="line"/>
      <point x="184" y="337" type="line"/>
      <point x="278" y="565" type="line"/>
      <point x="373" y="337" type="line"/>
    </contour>
  </outline>
</glyph>
<glyph name="space_less_three_space.liga" format="2">
  <advance width="1201"/>
  <unicode hex="E002"/>
  <outline>
    <contour>
      <point x="600" y="-15" type="curve" smooth="yes"/>
      <point x="629" y="-15"/>
      <point x="657" y="-3"/>
      <point x="677" y="18" type="curve" smooth="yes"/>
      <point x="842" y="193" type="line" smooth="yes"/>
      <point x="881" y="235"/>
      <point x="901" y="287"/>
      <point x="901" y="340" type="curve" smooth="yes"/>
      <point x="901" y="394"/>
      <point x="882" y="448"/>
      <point x="842" y="490" type="curve" smooth="yes"/>
      <point x="802" y="532"/>
      <point x="752" y="555"/>
      <point x="697" y="555" type="curve" smooth="yes"/>
      <point x="671" y="555"/>
      <point x="637" y="550"/>
      <point x="600" y="530" type="curve"/>
      <point x="569" y="547"/>
      <point x="537" y="555"/>
      <point x="504" y="555" type="curve" smooth="yes"/>
      <point x="466" y="555"/>
      <point x="411" y="544"/>
      <point x="359" y="489" type="curve" smooth="yes"/>
      <point x="319" y="447"/>
      <point x="300" y="394"/>
      <point x="300" y="340" type="curve" smooth="yes"/>
      <point x="300" y="287"/>
      <point x="320" y="235"/>
      <point x="359" y="193" type="curve" smooth="yes"/>
      <point x="525" y="18" type="line" smooth="yes"/>
      <point x="545" y="-3"/>
      <point x="572" y="-15"/>
    </contour>
    <contour>
      <point x="600" y="91" type="line"/>
      <point x="436" y="265" type="line" smooth="yes"/>
      <point x="416" y="285"/>
      <point x="405" y="313"/>
      <point x="405" y="341" type="curve" smooth="yes"/>
      <point x="405" y="368"/>
      <point x="415" y="396"/>
      <point x="436" y="417" type="curve" smooth="yes"/>
      <point x="456" y="439"/>
      <point x="479" y="450"/>
      <point x="504" y="450" type="curve" smooth="yes"/>
      <point x="534" y="450"/>
      <point x="567" y="433"/>
      <point x="600" y="397" type="curve"/>
      <point x="633" y="433"/>
      <point x="666" y="450"/>
      <point x="697" y="450" type="curve" smooth="yes"/>
      <point x="722" y="450"/>
      <point x="745" y="439"/>
      <point x="766" y="417" type="curve" smooth="yes"/>
      <point x="786" y="396"/>
      <point x="796" y="369"/>
      <point x="796" y="341" type="curve" smooth="yes"/>
      <point x="796" y="313"/>
      <point x="786" y="286"/>
      <point x="766" y="265" type="curve" smooth="yes"/>
    </contour>
  </outline>
</glyph>
<glyph name="De-cy.loclBGR" format="2">
  <advance width="777"/>
  <outline>
    <contour>
      <point x="40" y="-90" type="line"/>
      <point x="167" y="-90" type="line"/>
      <point x="167" y="0" type="line"/>
      <point x="599" y="0" type="line"/>
      <point x="599" y="-90" type="line"/>
      <point x="727" y="-90" type="line"/>
      <point x="727" y="127" type="line"/>
      <point x="40" y="127" type="line"/>
    </contour>
    <component base="V" yScale="-1" xOffset="57" yOffset="720"/>
  </outline>
</glyph>
<glyph name="tse-cy.loclBGR" format="2">
  <advance width="662"/>
  <outline>
    <contour>
      <point x="446" y="0" type="line"/>
      <point x="566" y="0" type="line"/>
      <point x="566" y="-90" type="line"/>
      <point x="652" y="-90" type="line"/>
      <point x="652" y="120" type="line"/>
      <point x="446" y="120" type="line"/>
    </contour>
    <component base="u"/>
  </outline>
</glyph>
<glyph name="ve-cy.loclBGR" format="2">
  <advance width="617"/>
  <outline>
    <contour>
      <point x="320" y="-15" type="curve" smooth="yes"/>
      <point x="480" y="-15"/>
      <point x="587" y="67"/>
      <point x="587" y="212" type="curve" smooth="yes"/>
      <point x="587" y="310"/>
      <point x="537" y="388"/>
      <point x="449" y="408" type="curve"/>
      <point x="452" y="379" type="line"/>
      <point x="506" y="414"/>
      <point x="530" y="468"/>
      <point x="530" y="526" type="curve" smooth="yes"/>
      <point x="530" y="646"/>
      <point x="430" y="735"/>
      <point x="295" y="735" type="curve" smooth="yes"/>
      <point x="203" y="735"/>
      <point x="107" y="693"/>
      <point x="78" y="594" type="curve" smooth="yes"/>
      <point x="70" y="567"/>
      <point x="70" y="545"/>
      <point x="70" y="530" type="curve" smooth="yes"/>
      <point x="70" y="235" type="line" smooth="yes"/>
      <point x="70" y="205"/>
      <point x="70" y="173"/>
      <point x="80" y="137" type="curve" smooth="yes"/>
      <point x="110" y="29"/>
      <point x="203" y="-15"/>
    </contour>
    <contour>
      <point x="326" y="111" type="curve" smooth="yes"/>
      <point x="282" y="111"/>
      <point x="229" y="126"/>
      <point x="214" y="167" type="curve" smooth="yes"/>
      <point x="207" y="186"/>
      <point x="207" y="215"/>
      <point x="207" y="225" type="curve" smooth="yes"/>
      <point x="207" y="493" type="line" smooth="yes"/>
      <point x="207" y="506"/>
      <point x="207" y="540"/>
      <point x="220" y="566" type="curve" smooth="yes"/>
      <point x="237" y="599"/>
      <point x="271" y="608"/>
      <point x="298" y="608" type="curve" smooth="yes"/>
      <point x="347" y="608"/>
      <point x="393" y="579"/>
      <point x="393" y="523" type="curve" smooth="yes"/>
      <point x="393" y="476"/>
      <point x="361" y="444"/>
      <point x="300" y="440" type="curve"/>
      <point x="300" y="322" type="line"/>
      <point x="389" y="322"/>
      <point x="451" y="291"/>
      <point x="451" y="218" type="curve" smooth="yes"/>
      <point x="451" y="152"/>
      <point x="400" y="111"/>
    </contour>
  </outline>
</glyph>
<glyph name="zhe-cy.loclBGR" format="2">
  <advance width="814"/>
  <outline>
    <contour>
      <point x="10" y="0" type="line"/>
      <point x="167" y="0" type="line"/>
      <point x="334" y="260" type="line"/>
      <point x="334" y="0" type="line"/>
      <point x="454" y="0" type="line"/>
      <point x="454" y="260" type="line"/>
      <point x="621" y="0" type="line"/>
      <point x="778" y="0" type="line"/>
      <point x="590" y="270" type="line"/>
      <point x="765" y="540" type="line"/>
      <point x="617" y="540" type="line"/>
      <point x="454" y="280" type="line"/>
      <point x="454" y="720" type="line"/>
      <point x="334" y="720" type="line"/>
      <point x="334" y="280" type="line"/>
      <point x="171" y="540" type="line"/>
      <point x="23" y="540" type="line"/>
      <point x="198" y="270" type="line"/>
    </contour>
  </outline>
</glyph>
